ISO-10303-21;
HEADER;
FILE_DESCRIPTION (( 'STEP AP214' ),
    '1' );
FILE_NAME ('acrylic_tubing.STEP',
    '2026-03-24T22:57:41',
    ( '' ),
    ( '' ),
    'SwSTEP 2.0',
    'SolidWorks 2024',
    '' );
FILE_SCHEMA (( 'AUTOMOTIVE_DESIGN' ));
ENDSEC;

DATA;
#1 = VERTEX_POINT ( 'NONE', #33 ) ;
#2 = VERTEX_POINT ( 'NONE', #3 ) ;
#3 = CARTESIAN_POINT ( 'NONE',  ( 0.000000000000000000, 60.00000000000000000, -20.05000000000000071 ) ) ;
#4 = ORIENTED_EDGE ( 'NONE', *, *, #145, .F. ) ;
#5 = DIRECTION ( 'NONE',  ( 0.000000000000000000, 1.000000000000000000, 0.000000000000000000 ) ) ;
#6 = ADVANCED_BREP_SHAPE_REPRESENTATION ( 'acrylic_tubing', ( #106, #183 ), #31 ) ;
#7 = CARTESIAN_POINT ( 'NONE',  ( 2.455416832290443586E-15, 60.00000000000000000, 20.05000000000000071 ) ) ;
#8 = PRODUCT_DEFINITION_FORMATION_WITH_SPECIFIED_SOURCE ( 'ANY', '', #138, .NOT_KNOWN. ) ;
#9 = SURFACE_STYLE_USAGE ( .BOTH. , #67 ) ;
#10 =( NAMED_UNIT ( * ) PLANE_ANGLE_UNIT ( ) SI_UNIT ( $, .RADIAN. ) );
#11 = AXIS2_PLACEMENT_3D ( 'NONE', #181, #140, #169 ) ;
#12 = CARTESIAN_POINT ( 'NONE',  ( 0.000000000000000000, 0.000000000000000000, 0.000000000000000000 ) ) ;
#13 = FACE_BOUND ( 'NONE', #20, .T. ) ;
#14 = EDGE_LOOP ( 'NONE', ( #63, #17 ) ) ;
#15 = ORIENTED_EDGE ( 'NONE', *, *, #78, .T. ) ;
#16 = STYLED_ITEM ( 'NONE', ( #49 ), #106 ) ;
#17 = ORIENTED_EDGE ( 'NONE', *, *, #178, .F. ) ;
#18 = ORIENTED_EDGE ( 'NONE', *, *, #101, .T. ) ;
#19 = ADVANCED_FACE ( 'NONE', ( #134 ), #135, .F. ) ;
#20 = EDGE_LOOP ( 'NONE', ( #47, #100 ) ) ;
#21 = CARTESIAN_POINT ( 'NONE',  ( 0.000000000000000000, 0.000000000000000000, -19.05000000000000071 ) ) ;
#22 =( LENGTH_UNIT ( ) NAMED_UNIT ( * ) SI_UNIT ( .MILLI., .METRE. ) );
#23 = DIRECTION ( 'NONE',  ( 0.000000000000000000, 1.000000000000000000, 0.000000000000000000 ) ) ;
#24 = UNCERTAINTY_MEASURE_WITH_UNIT (LENGTH_MEASURE( 1.000000000000000082E-05 ), #22, 'distance_accuracy_value', 'NONE');
#25 = LINE ( 'NONE', #184, #97 ) ;
#26 = AXIS2_PLACEMENT_3D ( 'NONE', #124, #48, #53 ) ;
#27 =( NAMED_UNIT ( * ) PLANE_ANGLE_UNIT ( ) SI_UNIT ( $, .RADIAN. ) );
#28 = EDGE_CURVE ( 'NONE', #114, #133, #99, .T. ) ;
#29 = VERTEX_POINT ( 'NONE', #21 ) ;
#30 = PRODUCT_DEFINITION ( 'UNKNOWN', '', #8, #90 ) ;
#31 =( GEOMETRIC_REPRESENTATION_CONTEXT ( 3 ) GLOBAL_UNCERTAINTY_ASSIGNED_CONTEXT ( ( #182 ) ) GLOBAL_UNIT_ASSIGNED_CONTEXT ( ( #55, #27, #60 ) ) REPRESENTATION_CONTEXT ( 'NONE', 'WORKASPACE' ) );
#32 =( GEOMETRIC_REPRESENTATION_CONTEXT ( 3 ) GLOBAL_UNCERTAINTY_ASSIGNED_CONTEXT ( ( #24 ) ) GLOBAL_UNIT_ASSIGNED_CONTEXT ( ( #22, #10, #34 ) ) REPRESENTATION_CONTEXT ( 'NONE', 'WORKASPACE' ) );
#33 = CARTESIAN_POINT ( 'NONE',  ( 2.332952152375708043E-15, 0.000000000000000000, 19.05000000000000071 ) ) ;
#34 =( NAMED_UNIT ( * ) SI_UNIT ( $, .STERADIAN. ) SOLID_ANGLE_UNIT ( ) );
#35 = AXIS2_PLACEMENT_3D ( 'NONE', #192, #5, #118 ) ;
#36 = CARTESIAN_POINT ( 'NONE',  ( 0.000000000000000000, 60.00000000000000000, -20.05000000000000071 ) ) ;
#37 = FACE_OUTER_BOUND ( 'NONE', #62, .T. ) ;
#38 = CYLINDRICAL_SURFACE ( 'NONE', #59, 20.05000000000000071 ) ;
#39 = CIRCLE ( 'NONE', #163, 20.05000000000000071 ) ;
#40 = CARTESIAN_POINT ( 'NONE',  ( 2.455416832290443586E-15, 0.000000000000000000, 20.05000000000000071 ) ) ;
#41 = EDGE_CURVE ( 'NONE', #74, #177, #64, .T. ) ;
#42 = CARTESIAN_POINT ( 'NONE',  ( 0.000000000000000000, 0.000000000000000000, 0.000000000000000000 ) ) ;
#43 = ORIENTED_EDGE ( 'NONE', *, *, #41, .T. ) ;
#44 = DIRECTION ( 'NONE',  ( -0.000000000000000000, -1.000000000000000000, -0.000000000000000000 ) ) ;
#45 = ORIENTED_EDGE ( 'NONE', *, *, #101, .F. ) ;
#46 = VECTOR ( 'NONE', #105, 1000.000000000000000 ) ;
#47 = ORIENTED_EDGE ( 'NONE', *, *, #117, .T. ) ;
#48 = DIRECTION ( 'NONE',  ( 0.000000000000000000, 1.000000000000000000, 0.000000000000000000 ) ) ;
#49 = PRESENTATION_STYLE_ASSIGNMENT (( #9 ) ) ;
#50 = AXIS2_PLACEMENT_3D ( 'NONE', #139, #190, #166 ) ;
#51 = CARTESIAN_POINT ( 'NONE',  ( 0.000000000000000000, 60.00000000000000000, 0.000000000000000000 ) ) ;
#52 = DIRECTION ( 'NONE',  ( 0.000000000000000000, 0.000000000000000000, 1.000000000000000000 ) ) ;
#53 = DIRECTION ( 'NONE',  ( 0.000000000000000000, 0.000000000000000000, 1.000000000000000000 ) ) ;
#54 = EDGE_CURVE ( 'NONE', #177, #149, #131, .T. ) ;
#55 =( LENGTH_UNIT ( ) NAMED_UNIT ( * ) SI_UNIT ( .MILLI., .METRE. ) );
#56 = FACE_BOUND ( 'NONE', #14, .T. ) ;
#57 = DIRECTION ( 'NONE',  ( 0.000000000000000000, -0.000000000000000000, 1.000000000000000000 ) ) ;
#58 = CIRCLE ( 'NONE', #76, 19.05000000000000071 ) ;
#59 = AXIS2_PLACEMENT_3D ( 'NONE', #81, #119, #87 ) ;
#60 =( NAMED_UNIT ( * ) SI_UNIT ( $, .STERADIAN. ) SOLID_ANGLE_UNIT ( ) );
#61 = EDGE_LOOP ( 'NONE', ( #130, #176, #96, #148 ) ) ;
#62 = EDGE_LOOP ( 'NONE', ( #165, #174, #95, #175 ) ) ;
#63 = ORIENTED_EDGE ( 'NONE', *, *, #28, .F. ) ;
#64 = LINE ( 'NONE', #7, #147 ) ;
#65 = CARTESIAN_POINT ( 'NONE',  ( 0.000000000000000000, 0.000000000000000000, 0.000000000000000000 ) ) ;
#66 = AXIS2_PLACEMENT_3D ( 'NONE', #195, #88, #93 ) ;
#67 = SURFACE_SIDE_STYLE ('',( #69 ) ) ;
#68 = APPLICATION_CONTEXT ( 'automotive_design' ) ;
#69 = SURFACE_STYLE_FILL_AREA ( #83 ) ;
#70 = DIRECTION ( 'NONE',  ( -0.000000000000000000, -1.000000000000000000, -0.000000000000000000 ) ) ;
#71 = DIRECTION ( 'NONE',  ( 0.000000000000000000, 0.000000000000000000, 1.000000000000000000 ) ) ;
#72 = ADVANCED_FACE ( 'NONE', ( #193 ), #38, .T. ) ;
#73 = PLANE ( 'NONE',  #144 ) ;
#74 = VERTEX_POINT ( 'NONE', #156 ) ;
#75 = ORIENTED_EDGE ( 'NONE', *, *, #117, .F. ) ;
#76 = AXIS2_PLACEMENT_3D ( 'NONE', #65, #23, #137 ) ;
#77 = PRESENTATION_LAYER_ASSIGNMENT (  '', '', ( #16 ) ) ;
#78 = EDGE_CURVE ( 'NONE', #2, #74, #129, .T. ) ;
#79 = ORIENTED_EDGE ( 'NONE', *, *, #54, .T. ) ;
#80 = ORIENTED_EDGE ( 'NONE', *, *, #28, .T. ) ;
#81 = CARTESIAN_POINT ( 'NONE',  ( 0.000000000000000000, 60.00000000000000000, 0.000000000000000000 ) ) ;
#82 = CYLINDRICAL_SURFACE ( 'NONE', #115, 19.05000000000000071 ) ;
#83 = FILL_AREA_STYLE ('',( #155 ) ) ;
#84 = AXIS2_PLACEMENT_3D ( 'NONE', #126, #196, #57 ) ;
#85 = DIRECTION ( 'NONE',  ( -0.000000000000000000, -1.000000000000000000, -0.000000000000000000 ) ) ;
#86 = ADVANCED_FACE ( 'NONE', ( #37 ), #122, .T. ) ;
#87 = DIRECTION ( 'NONE',  ( 0.000000000000000000, 0.000000000000000000, -1.000000000000000000 ) ) ;
#88 = DIRECTION ( 'NONE',  ( 0.000000000000000000, 1.000000000000000000, 0.000000000000000000 ) ) ;
#89 = CIRCLE ( 'NONE', #26, 20.05000000000000071 ) ;
#90 = PRODUCT_DEFINITION_CONTEXT ( 'detailed design', #141, 'design' ) ;
#91 = EDGE_CURVE ( 'NONE', #133, #1, #153, .T. ) ;
#92 = FACE_OUTER_BOUND ( 'NONE', #162, .T. ) ;
#93 = DIRECTION ( 'NONE',  ( 0.000000000000000000, 0.000000000000000000, 1.000000000000000000 ) ) ;
#94 = DIRECTION ( 'NONE',  ( 0.000000000000000000, 0.000000000000000000, 1.000000000000000000 ) ) ;
#95 = ORIENTED_EDGE ( 'NONE', *, *, #123, .T. ) ;
#96 = ORIENTED_EDGE ( 'NONE', *, *, #145, .T. ) ;
#97 = VECTOR ( 'NONE', #70, 1000.000000000000000 ) ;
#98 = PRODUCT_RELATED_PRODUCT_CATEGORY ( 'part', '', ( #138 ) ) ;
#99 = CIRCLE ( 'NONE', #11, 19.05000000000000071 ) ;
#100 = ORIENTED_EDGE ( 'NONE', *, *, #112, .T. ) ;
#101 = EDGE_CURVE ( 'NONE', #74, #2, #89, .T. ) ;
#102 = DIRECTION ( 'NONE',  ( -0.000000000000000000, -1.000000000000000000, -0.000000000000000000 ) ) ;
#103 = AXIS2_PLACEMENT_3D ( 'NONE', #113, #44, #199 ) ;
#104 = DIRECTION ( 'NONE',  ( -0.000000000000000000, -1.000000000000000000, -0.000000000000000000 ) ) ;
#105 = DIRECTION ( 'NONE',  ( -0.000000000000000000, -1.000000000000000000, -0.000000000000000000 ) ) ;
#106 = MANIFOLD_SOLID_BREP ( 'Boss-Extrude1', #142 ) ;
#107 = CARTESIAN_POINT ( 'NONE',  ( 0.000000000000000000, 60.00000000000000000, 0.000000000000000000 ) ) ;
#108 = ADVANCED_FACE ( 'NONE', ( #187 ), #82, .F. ) ;
#109 = COLOUR_RGB ( '',0.7921568627450980005, 0.8196078431372548767, 0.9333333333333333481 ) ;
#110 = DIRECTION ( 'NONE',  ( 0.000000000000000000, -0.000000000000000000, 1.000000000000000000 ) ) ;
#111 = CARTESIAN_POINT ( 'NONE',  ( 0.000000000000000000, 0.000000000000000000, 0.000000000000000000 ) ) ;
#112 = EDGE_CURVE ( 'NONE', #1, #29, #58, .T. ) ;
#113 = CARTESIAN_POINT ( 'NONE',  ( 0.000000000000000000, 60.00000000000000000, 0.000000000000000000 ) ) ;
#114 = VERTEX_POINT ( 'NONE', #121 ) ;
#115 = AXIS2_PLACEMENT_3D ( 'NONE', #51, #102, #152 ) ;
#116 = EDGE_LOOP ( 'NONE', ( #80, #186, #75, #4 ) ) ;
#117 = EDGE_CURVE ( 'NONE', #29, #1, #127, .T. ) ;
#118 = DIRECTION ( 'NONE',  ( 0.000000000000000000, 0.000000000000000000, 1.000000000000000000 ) ) ;
#119 = DIRECTION ( 'NONE',  ( -0.000000000000000000, -1.000000000000000000, -0.000000000000000000 ) ) ;
#120 = AXIS2_PLACEMENT_3D ( 'NONE', #107, #136, #168 ) ;
#121 = CARTESIAN_POINT ( 'NONE',  ( 0.000000000000000000, 60.00000000000000000, -19.05000000000000071 ) ) ;
#122 = CYLINDRICAL_SURFACE ( 'NONE', #120, 20.05000000000000071 ) ;
#123 = EDGE_CURVE ( 'NONE', #2, #149, #179, .T. ) ;
#124 = CARTESIAN_POINT ( 'NONE',  ( 0.000000000000000000, 60.00000000000000000, 0.000000000000000000 ) ) ;
#125 = APPLICATION_PROTOCOL_DEFINITION ( 'draft international standard', 'automotive_design', 1998, #141 ) ;
#126 = CARTESIAN_POINT ( 'NONE',  ( 0.000000000000000000, 60.00000000000000000, 0.000000000000000000 ) ) ;
#127 = CIRCLE ( 'NONE', #50, 19.05000000000000071 ) ;
#128 = DIRECTION ( 'NONE',  ( 0.000000000000000000, 1.000000000000000000, 0.000000000000000000 ) ) ;
#129 = CIRCLE ( 'NONE', #154, 20.05000000000000071 ) ;
#130 = ORIENTED_EDGE ( 'NONE', *, *, #91, .F. ) ;
#131 = CIRCLE ( 'NONE', #35, 20.05000000000000071 ) ;
#132 = ORIENTED_EDGE ( 'NONE', *, *, #54, .F. ) ;
#133 = VERTEX_POINT ( 'NONE', #167 ) ;
#134 = FACE_OUTER_BOUND ( 'NONE', #61, .T. ) ;
#135 = CYLINDRICAL_SURFACE ( 'NONE', #103, 19.05000000000000071 ) ;
#136 = DIRECTION ( 'NONE',  ( -0.000000000000000000, -1.000000000000000000, -0.000000000000000000 ) ) ;
#137 = DIRECTION ( 'NONE',  ( 0.000000000000000000, 0.000000000000000000, 1.000000000000000000 ) ) ;
#138 = PRODUCT ( 'acrylic_tubing', 'acrylic_tubing', '', ( #143 ) ) ;
#139 = CARTESIAN_POINT ( 'NONE',  ( 0.000000000000000000, 0.000000000000000000, 0.000000000000000000 ) ) ;
#140 = DIRECTION ( 'NONE',  ( 0.000000000000000000, 1.000000000000000000, 0.000000000000000000 ) ) ;
#141 = APPLICATION_CONTEXT ( 'automotive_design' ) ;
#142 = CLOSED_SHELL ( 'NONE', ( #108, #72, #150, #188, #86, #19 ) ) ;
#143 = PRODUCT_CONTEXT ( 'NONE', #68, 'mechanical' ) ;
#144 = AXIS2_PLACEMENT_3D ( 'NONE', #12, #128, #110 ) ;
#145 = EDGE_CURVE ( 'NONE', #114, #29, #25, .T. ) ;
#146 = ORIENTED_EDGE ( 'NONE', *, *, #123, .F. ) ;
#147 = VECTOR ( 'NONE', #85, 1000.000000000000000 ) ;
#148 = ORIENTED_EDGE ( 'NONE', *, *, #112, .F. ) ;
#149 = VERTEX_POINT ( 'NONE', #198 ) ;
#150 = ADVANCED_FACE ( 'NONE', ( #92, #56 ), #173, .T. ) ;
#151 = CARTESIAN_POINT ( 'NONE',  ( 0.000000000000000000, 60.00000000000000000, 0.000000000000000000 ) ) ;
#152 = DIRECTION ( 'NONE',  ( 0.000000000000000000, 0.000000000000000000, -1.000000000000000000 ) ) ;
#153 = LINE ( 'NONE', #189, #197 ) ;
#154 = AXIS2_PLACEMENT_3D ( 'NONE', #151, #180, #52 ) ;
#155 = FILL_AREA_STYLE_COLOUR ( '', #109 ) ;
#156 = CARTESIAN_POINT ( 'NONE',  ( 2.455416832290443586E-15, 60.00000000000000000, 20.05000000000000071 ) ) ;
#157 = DIRECTION ( 'NONE',  ( 0.000000000000000000, 1.000000000000000000, 0.000000000000000000 ) ) ;
#158 = EDGE_CURVE ( 'NONE', #149, #177, #39, .T. ) ;
#159 = FACE_OUTER_BOUND ( 'NONE', #161, .T. ) ;
#160 = DIRECTION ( 'NONE',  ( 1.000000000000000000, 0.000000000000000000, 0.000000000000000000 ) ) ;
#161 = EDGE_LOOP ( 'NONE', ( #164, #132 ) ) ;
#162 = EDGE_LOOP ( 'NONE', ( #15, #18 ) ) ;
#163 = AXIS2_PLACEMENT_3D ( 'NONE', #42, #157, #71 ) ;
#164 = ORIENTED_EDGE ( 'NONE', *, *, #158, .F. ) ;
#165 = ORIENTED_EDGE ( 'NONE', *, *, #41, .F. ) ;
#166 = DIRECTION ( 'NONE',  ( 0.000000000000000000, 0.000000000000000000, 1.000000000000000000 ) ) ;
#167 = CARTESIAN_POINT ( 'NONE',  ( 2.332952152375708043E-15, 60.00000000000000000, 19.05000000000000071 ) ) ;
#168 = DIRECTION ( 'NONE',  ( 0.000000000000000000, 0.000000000000000000, -1.000000000000000000 ) ) ;
#169 = DIRECTION ( 'NONE',  ( 0.000000000000000000, 0.000000000000000000, 1.000000000000000000 ) ) ;
#170 = APPLICATION_PROTOCOL_DEFINITION ( 'draft international standard', 'automotive_design', 1998, #68 ) ;
#171 = CIRCLE ( 'NONE', #66, 19.05000000000000071 ) ;
#172 = PRODUCT_DEFINITION_SHAPE ( 'NONE', 'NONE',  #30 ) ;
#173 = PLANE ( 'NONE',  #84 ) ;
#174 = ORIENTED_EDGE ( 'NONE', *, *, #78, .F. ) ;
#175 = ORIENTED_EDGE ( 'NONE', *, *, #158, .T. ) ;
#176 = ORIENTED_EDGE ( 'NONE', *, *, #178, .T. ) ;
#177 = VERTEX_POINT ( 'NONE', #40 ) ;
#178 = EDGE_CURVE ( 'NONE', #133, #114, #171, .T. ) ;
#179 = LINE ( 'NONE', #36, #46 ) ;
#180 = DIRECTION ( 'NONE',  ( 0.000000000000000000, 1.000000000000000000, 0.000000000000000000 ) ) ;
#181 = CARTESIAN_POINT ( 'NONE',  ( 0.000000000000000000, 60.00000000000000000, 0.000000000000000000 ) ) ;
#182 = UNCERTAINTY_MEASURE_WITH_UNIT (LENGTH_MEASURE( 1.000000000000000082E-05 ), #55, 'distance_accuracy_value', 'NONE');
#183 = AXIS2_PLACEMENT_3D ( 'NONE', #111, #94, #160 ) ;
#184 = CARTESIAN_POINT ( 'NONE',  ( 0.000000000000000000, 60.00000000000000000, -19.05000000000000071 ) ) ;
#185 = EDGE_LOOP ( 'NONE', ( #45, #43, #79, #146 ) ) ;
#186 = ORIENTED_EDGE ( 'NONE', *, *, #91, .T. ) ;
#187 = FACE_OUTER_BOUND ( 'NONE', #116, .T. ) ;
#188 = ADVANCED_FACE ( 'NONE', ( #159, #13 ), #73, .F. ) ;
#189 = CARTESIAN_POINT ( 'NONE',  ( 2.332952152375708043E-15, 60.00000000000000000, 19.05000000000000071 ) ) ;
#190 = DIRECTION ( 'NONE',  ( 0.000000000000000000, 1.000000000000000000, 0.000000000000000000 ) ) ;
#191 = MECHANICAL_DESIGN_GEOMETRIC_PRESENTATION_REPRESENTATION (  '', ( #16 ), #32 ) ;
#192 = CARTESIAN_POINT ( 'NONE',  ( 0.000000000000000000, 0.000000000000000000, 0.000000000000000000 ) ) ;
#193 = FACE_OUTER_BOUND ( 'NONE', #185, .T. ) ;
#194 = SHAPE_DEFINITION_REPRESENTATION ( #172, #6 ) ;
#195 = CARTESIAN_POINT ( 'NONE',  ( 0.000000000000000000, 60.00000000000000000, 0.000000000000000000 ) ) ;
#196 = DIRECTION ( 'NONE',  ( 0.000000000000000000, 1.000000000000000000, 0.000000000000000000 ) ) ;
#197 = VECTOR ( 'NONE', #104, 1000.000000000000000 ) ;
#198 = CARTESIAN_POINT ( 'NONE',  ( 0.000000000000000000, 0.000000000000000000, -20.05000000000000071 ) ) ;
#199 = DIRECTION ( 'NONE',  ( 0.000000000000000000, 0.000000000000000000, -1.000000000000000000 ) ) ;
ENDSEC;
END-ISO-10303-21;
