ISO-10303-21;
HEADER;
FILE_DESCRIPTION (( 'STEP AP214' ),
    '1' );
FILE_NAME ('acrylic_tubing_shaped.STEP',
    '2026-03-26T17:00:12',
    ( '' ),
    ( '' ),
    'SwSTEP 2.0',
    'SolidWorks 2024',
    '' );
FILE_SCHEMA (( 'AUTOMOTIVE_DESIGN' ));
ENDSEC;

DATA;
#1 = CARTESIAN_POINT ( 'NONE',  ( -10.21607335352592827, -44.59146808923269845, 16.08382832690388042 ) ) ;
#2 = CARTESIAN_POINT ( 'NONE',  ( -15.10944348277994109, -14.99999999999999822, 0.6707191873234837898 ) ) ;
#3 = CARTESIAN_POINT ( 'NONE',  ( 16.54553218637351009, 0.000000000000000000, -11.32465737537689954 ) ) ;
#4 = AXIS2_PLACEMENT_3D ( 'NONE', #731, #177, #301 ) ;
#5 = CARTESIAN_POINT ( 'NONE',  ( -16.97873038235191956, -40.70161491865265191, 8.644250377479529845 ) ) ;
#6 = CARTESIAN_POINT ( 'NONE',  ( -7.983911571518599537, -44.97443297703048870, 18.45389750527135320 ) ) ;
#7 = EDGE_CURVE ( 'NONE', #638, #617, #527, .T. ) ;
#8 = ORIENTED_EDGE ( 'NONE', *, *, #435, .F. ) ;
#9 = CARTESIAN_POINT ( 'NONE',  ( 16.11968608732724206, -0.03024672214858804831, -10.21267109895746117 ) ) ;
#10 =( NAMED_UNIT ( * ) SI_UNIT ( $, .STERADIAN. ) SOLID_ANGLE_UNIT ( ) );
#11 = CARTESIAN_POINT ( 'NONE',  ( -24.42331012845304272, 0.000000000000000000, -13.09545750110287621 ) ) ;
#12 = VERTEX_POINT ( 'NONE', #57 ) ;
#13 = CARTESIAN_POINT ( 'NONE',  ( 19.18493145832130864, -13.89216148114810423, 5.825882331416710080 ) ) ;
#14 = CARTESIAN_POINT ( 'NONE',  ( -4.115154901819162880, -45.00000000000000000, 19.24016715141499390 ) ) ;
#15 = APPLICATION_CONTEXT ( 'automotive_design' ) ;
#16 = DIRECTION ( 'NONE',  ( 1.000000000000000000, 0.000000000000000000, 0.000000000000000000 ) ) ;
#17 = FACE_OUTER_BOUND ( 'NONE', #310, .T. ) ;
#18 = VERTEX_POINT ( 'NONE', #313 ) ;
#19 = CARTESIAN_POINT ( 'NONE',  ( -23.19254110523962353, -25.00000000000000000, 1.888380752152898134 ) ) ;
#20 = B_SPLINE_CURVE_WITH_KNOTS ( 'NONE', 3,
 ( #79, #562, #9, #502, #193, #314, #750, #348, #415, #610, #615, #173, #784, #671, #53, #674, #293, #801, #717, #483, #114, #543, #111, #412, #242, #606, #67, #551, #288, #353, #63, #793 ),
 .UNSPECIFIED., .F., .F.,
 ( 4, 2, 2, 2, 2, 2, 2, 2, 2, 2, 2, 2, 2, 2, 2, 4 ),
 ( 2.456167077833907621E-18, 0.003349837627733743065, 0.005024756441600617199, 0.005862215848534055133, 0.006699675255467492201, 0.01004951288320124828, 0.01172443169706813108, 0.01339935051093501042, 0.01507426932480188976, 0.01591172873173533203, 0.01674918813866877257, 0.01842410695253565364, 0.02009902576640253472, 0.02344886339413630380, 0.02512378220800318487, 0.02679870102187006248 ),
 .UNSPECIFIED. ) ;
#21 = CARTESIAN_POINT ( 'NONE',  ( -11.73428086174425466, 0.000000000000000000, -15.00697013583030071 ) ) ;
#22 = PRESENTATION_LAYER_ASSIGNMENT (  '', '', ( #158 ) ) ;
#23 = ORIENTED_EDGE ( 'NONE', *, *, #769, .F. ) ;
#24 = UNCERTAINTY_MEASURE_WITH_UNIT (LENGTH_MEASURE( 1.000000000000000082E-05 ), #739, 'distance_accuracy_value', 'NONE');
#25 = CARTESIAN_POINT ( 'NONE',  ( 4.116321089216351904E-12, -44.98843942296809928, 19.05000000000000071 ) ) ;
#26 = CARTESIAN_POINT ( 'NONE',  ( 0.000000000000000000, 60.00000000000000000, -19.05000000000000071 ) ) ;
#27 = ORIENTED_EDGE ( 'NONE', *, *, #230, .F. ) ;
#28 = DIRECTION ( 'NONE',  ( -0.000000000000000000, 1.000000000000000000, -0.000000000000000000 ) ) ;
#29 = CARTESIAN_POINT ( 'NONE',  ( -19.00841278014438629, -25.00000000000000711, 1.258071373032447537 ) ) ;
#30 = ORIENTED_EDGE ( 'NONE', *, *, #324, .F. ) ;
#31 = DIRECTION ( 'NONE',  ( 0.000000000000000000, 0.000000000000000000, -1.000000000000000000 ) ) ;
#32 =( LENGTH_UNIT ( ) NAMED_UNIT ( * ) SI_UNIT ( .MILLI., .METRE. ) );
#33 = ORIENTED_EDGE ( 'NONE', *, *, #371, .F. ) ;
#34 = AXIS2_PLACEMENT_3D ( 'NONE', #151, #773, #31 ) ;
#35 = CARTESIAN_POINT ( 'NONE',  ( 20.18424634792934214, -25.00000000000000711, 6.218177908525589714 ) ) ;
#36 = CARTESIAN_POINT ( 'NONE',  ( 8.639889471381962949, -44.44494983274140054, 18.10778691514952854 ) ) ;
#37 = ORIENTED_EDGE ( 'NONE', *, *, #357, .T. ) ;
#38 = CARTESIAN_POINT ( 'NONE',  ( -1.993804808526558281, -25.00000000000000000, -1.305059141451514693 ) ) ;
#39 = CARTESIAN_POINT ( 'NONE',  ( 18.72992828485344674, -32.37295635606671595, 7.156377191186678033 ) ) ;
#40 = CARTESIAN_POINT ( 'NONE',  ( -18.92923027191776697, -38.72309836876680578, 6.678945107234756762 ) ) ;
#41 = PLANE ( 'NONE',  #547 ) ;
#42 = ADVANCED_FACE ( 'NONE', ( #745, #504 ), #250, .T. ) ;
#43 = CARTESIAN_POINT ( 'NONE',  ( 0.6590816590017364307, -45.00000000000000000, 20.03916443783941048 ) ) ;
#44 = CARTESIAN_POINT ( 'NONE',  ( -19.34286696026083519, -36.95260732492162248, 5.299659363188848005 ) ) ;
#45 = CARTESIAN_POINT ( 'NONE',  ( 2.235532920020761871, -25.00000000000000711, -0.8278502911794441976 ) ) ;
#46 = VECTOR ( 'NONE', #800, 1000.000000000000000 ) ;
#47 = PRODUCT_DEFINITION_FORMATION_WITH_SPECIFIED_SOURCE ( 'ANY', '', #460, .NOT_KNOWN. ) ;
#48 = CARTESIAN_POINT ( 'NONE',  ( 17.96075808053420531, -36.04418694127262057, 8.913734519207071827 ) ) ;
#49 = CARTESIAN_POINT ( 'NONE',  ( -20.03546021445975001, -10.64188529075018330, 0.8007393499592526664 ) ) ;
#50 = B_SPLINE_CURVE_WITH_KNOTS ( 'NONE', 3,
 ( #707, #654, #343, #593 ),
 .UNSPECIFIED., .F., .F.,
 ( 4, 4 ),
 ( -0.005890271965884551902, -0.004886956491519391620 ),
 .UNSPECIFIED. ) ;
#51 = CARTESIAN_POINT ( 'NONE',  ( 11.02915509425605123, -43.35416889048320854, 15.54866960484022265 ) ) ;
#52 = CARTESIAN_POINT ( 'NONE',  ( 12.72139942642369803, 0.000000000000000000, -12.82587624402991366 ) ) ;
#53 = CARTESIAN_POINT ( 'NONE',  ( 19.04326351502066217, -2.987959287746521753, -0.6758360445018780638 ) ) ;
#54 = CARTESIAN_POINT ( 'NONE',  ( 0.000000000000000000, 0.000000000000000000, -19.05000000000000071 ) ) ;
#55 = CARTESIAN_POINT ( 'NONE',  ( -20.21329716015657851, -45.00000000000000000, 21.66523857931255037 ) ) ;
#56 = CARTESIAN_POINT ( 'NONE',  ( -16.47853814368978931, -0.2626521869240437401, -11.43489067292576777 ) ) ;
#57 = CARTESIAN_POINT ( 'NONE',  ( 0.6590816590017364307, -45.00000000000000000, 20.03916443783941048 ) ) ;
#58 = B_SPLINE_CURVE_WITH_KNOTS ( 'NONE', 3,
 ( #308, #261, #500, #372, #508, #753, #431, #619, #257, #186, #387, #1, #441, #72, #312, #558, #632, #496, #245, #623, #141, #757, #5, #628, #198, #678, #693, #636, #249, #744, #690, #131, #503, #77, #190, #202, #682, #436 ),
 .UNSPECIFIED., .F., .F.,
 ( 4, 2, 2, 2, 2, 2, 2, 2, 2, 2, 2, 2, 2, 2, 2, 2, 2, 2, 4 ),
 ( 0.02681353922614877761, 0.02798837943710871107, 0.02916321964806864106, 0.03151290006998850451, 0.03386258049190836450, 0.03503742070286829796, 0.03621226091382822448, 0.04091162175766793752, 0.04208646196862786404, 0.04326130217958779750, 0.04561098260150765749, 0.04678582281246758401, 0.04796066302342751053, 0.05031034344534734276, 0.05266002386726717499, 0.05500970428918701416, 0.05735938471110684639, 0.05970906513302667862, 0.06440842597686634308 ),
 .UNSPECIFIED. ) ;
#59 = CARTESIAN_POINT ( 'NONE',  ( 7.574022315169347763, -45.00000000000001421, 1.267851273900711950 ) ) ;
#60 = B_SPLINE_CURVE_WITH_KNOTS ( 'NONE', 3,
 ( #644, #199, #450, #328 ),
 .UNSPECIFIED., .F., .F.,
 ( 4, 4 ),
 ( -0.01126309654357971965, -0.009367888969773158908 ),
 .UNSPECIFIED. ) ;
#61 = AXIS2_PLACEMENT_3D ( 'NONE', #268, #378, #520 ) ;
#62 = DIRECTION ( 'NONE',  ( 0.000000000000000000, 0.000000000000000000, -1.000000000000000000 ) ) ;
#63 = CARTESIAN_POINT ( 'NONE',  ( 18.25100110546652488, -14.43339990555354646, 5.459254404061023358 ) ) ;
#64 = CARTESIAN_POINT ( 'NONE',  ( -20.72998182638681186, 0.000000000000000000, 1.517413590177604910 ) ) ;
#65 = VERTEX_POINT ( 'NONE', #297 ) ;
#66 = CARTESIAN_POINT ( 'NONE',  ( 19.18493145832130864, -15.00000000000000711, 5.825882331416710080 ) ) ;
#67 = CARTESIAN_POINT ( 'NONE',  ( 18.42479114647897021, -10.54297830756208398, 4.847035263712509590 ) ) ;
#68 = DIRECTION ( 'NONE',  ( -0.000000000000000000, -1.000000000000000000, -0.000000000000000000 ) ) ;
#69 = EDGE_LOOP ( 'NONE', ( #705, #115, #369, #764 ) ) ;
#70 = CARTESIAN_POINT ( 'NONE',  ( 19.01764417788652395, -0.4216097883977307226, -6.440386819653179273 ) ) ;
#71 = EDGE_CURVE ( 'NONE', #366, #259, #78, .T. ) ;
#72 = CARTESIAN_POINT ( 'NONE',  ( -12.14214615190985924, -44.22399942889900615, 14.76104674754066970 ) ) ;
#73 = CARTESIAN_POINT ( 'NONE',  ( -5.104830764899403128, -45.00000000000000000, 19.38925482997571947 ) ) ;
#74 = ORIENTED_EDGE ( 'NONE', *, *, #7, .F. ) ;
#75 = CARTESIAN_POINT ( 'NONE',  ( 0.000000000000000000, 60.00000000000000000, 0.000000000000000000 ) ) ;
#76 = AXIS2_PLACEMENT_3D ( 'NONE', #776, #765, #327 ) ;
#77 = CARTESIAN_POINT ( 'NONE',  ( -18.92231902941950850, -31.18261914684949687, 2.219011453633347397 ) ) ;
#78 = LINE ( 'NONE', #749, #122 ) ;
#79 = CARTESIAN_POINT ( 'NONE',  ( 14.78138927882175224, 0.000000000000000000, -12.01719730169782707 ) ) ;
#80 = CARTESIAN_POINT ( 'NONE',  ( 18.87362134070304620, 0.000000000000000000, 5.703673022298146655 ) ) ;
#81 = DIRECTION ( 'NONE',  ( -0.000000000000000000, -1.000000000000000000, -0.000000000000000000 ) ) ;
#82 = CARTESIAN_POINT ( 'NONE',  ( -3.125479038738924853, -45.00000000000000000, 19.09107947285427187 ) ) ;
#83 = VERTEX_POINT ( 'NONE', #611 ) ;
#84 = CARTESIAN_POINT ( 'NONE',  ( 20.55825802658667811, 0.000000000000000000, 6.365001626304769289 ) ) ;
#85 = DIRECTION ( 'NONE',  ( 0.000000000000000000, -0.000000000000000000, 1.000000000000000000 ) ) ;
#86 = AXIS2_PLACEMENT_3D ( 'NONE', #75, #133, #139 ) ;
#87 = ORIENTED_EDGE ( 'NONE', *, *, #759, .T. ) ;
#88 = CARTESIAN_POINT ( 'NONE',  ( -13.33687678960511924, -25.00000000000000000, 0.4036945348711291071 ) ) ;
#89 = ORIENTED_EDGE ( 'NONE', *, *, #241, .T. ) ;
#90 = CARTESIAN_POINT ( 'NONE',  ( -15.61452643073713098, -0.3682059874442358272, -10.96775815919175301 ) ) ;
#91 = LINE ( 'NONE', #208, #336 ) ;
#92 = EDGE_CURVE ( 'NONE', #326, #518, #770, .T. ) ;
#93 = EDGE_LOOP ( 'NONE', ( #126, #27 ) ) ;
#94 = CARTESIAN_POINT ( 'NONE',  ( 15.20828559339094355, -41.14900977660288817, 13.06942801631329942 ) ) ;
#95 = ORIENTED_EDGE ( 'NONE', *, *, #472, .F. ) ;
#96 = CARTESIAN_POINT ( 'NONE',  ( -19.00841278014438629, -15.00000000000000711, 1.258071373032447537 ) ) ;
#97 = CARTESIAN_POINT ( 'NONE',  ( 5.842185220765792941, -44.81971176805196677, 19.18368439858013375 ) ) ;
#98 = CARTESIAN_POINT ( 'NONE',  ( -19.45321360883751893, -36.33834941274090369, 4.872082851136836368 ) ) ;
#99 = CARTESIAN_POINT ( 'NONE',  ( -18.00494970362962377, -2.136424904185145746, -6.241983359465519854 ) ) ;
#100 = ADVANCED_FACE ( 'NONE', ( #559 ), #149, .T. ) ;
#101 = CARTESIAN_POINT ( 'NONE',  ( 18.97659666221626296, -30.22482854784142248, 6.474550892128458912 ) ) ;
#102 = LINE ( 'NONE', #300, #46 ) ;
#103 = CARTESIAN_POINT ( 'NONE',  ( 18.25100110546652843, -26.49847893963091394, 5.459254404061025134 ) ) ;
#104 = CARTESIAN_POINT ( 'NONE',  ( 6.916923335963196529, -44.70730462458450916, 18.82284098411888351 ) ) ;
#105 = CARTESIAN_POINT ( 'NONE',  ( -19.78707174614834585, -4.193018089261636661, -3.259997541613988581 ) ) ;
#106 = CARTESIAN_POINT ( 'NONE',  ( 18.20511455429044645, -27.96856592205915959, 5.619886709076510556 ) ) ;
#107 = MANIFOLD_SOLID_BREP ( 'Fillet2', #701 ) ;
#108 = MECHANICAL_DESIGN_GEOMETRIC_PRESENTATION_REPRESENTATION (  '', ( #158 ), #639 ) ;
#109 = CARTESIAN_POINT ( 'NONE',  ( 17.54923025671544323, -37.27266075645933086, 9.699720242330419850 ) ) ;
#110 = ADVANCED_FACE ( 'NONE', ( #392 ), #361, .T. ) ;
#111 = CARTESIAN_POINT ( 'NONE',  ( 18.83266137520750760, -6.528943788592523667, 2.885430991782035104 ) ) ;
#112 = CARTESIAN_POINT ( 'NONE',  ( 4.116321089216351904E-12, -44.98843942296809928, 19.05000000000000071 ) ) ;
#113 = CARTESIAN_POINT ( 'NONE',  ( -22.12853878841301736, -44.99999999999999289, 1.728096318312921875 ) ) ;
#114 = CARTESIAN_POINT ( 'NONE',  ( 18.94272944634037259, -5.427785118025368227, 2.026664622654686276 ) ) ;
#115 = ORIENTED_EDGE ( 'NONE', *, *, #333, .T. ) ;
#116 = CARTESIAN_POINT ( 'NONE',  ( 16.07345967084532390, -38.52026635480496708, 10.23823341585414859 ) ) ;
#117 = CARTESIAN_POINT ( 'NONE',  ( 7.240153446623583733, -15.00000000000000000, 1.136786199391290220 ) ) ;
#118 = CARTESIAN_POINT ( 'NONE',  ( -16.16230169618265933, -0.1940818634328046466, -11.87765769857893083 ) ) ;
#119 = CARTESIAN_POINT ( 'NONE',  ( -9.545937846863326470, 0.000000000000000000, -15.33662855446418405 ) ) ;
#120 = EDGE_LOOP ( 'NONE', ( #332, #344 ) ) ;
#121 = CARTESIAN_POINT ( 'NONE',  ( 0.2656943421025323993, -45.00000000000001421, 19.88473453179565809 ) ) ;
#122 = VECTOR ( 'NONE', #68, 1000.000000000000000 ) ;
#123 = B_SPLINE_CURVE_WITH_KNOTS ( 'NONE', 3,
 ( #381, #145, #448, #563 ),
 .UNSPECIFIED., .F., .F.,
 ( 4, 4 ),
 ( -0.01998705440403863304, -0.01898373892967349097 ),
 .UNSPECIFIED. ) ;
#124 = CARTESIAN_POINT ( 'NONE',  ( -18.11510317664408021, -0.9497599968366027268, -8.658651277392687362 ) ) ;
#125 = CARTESIAN_POINT ( 'NONE',  ( -12.35896837407973337, 0.000000000000000000, -14.91286537434798198 ) ) ;
#126 = ORIENTED_EDGE ( 'NONE', *, *, #215, .F. ) ;
#127 = CARTESIAN_POINT ( 'NONE',  ( 19.44974395582368132, -9.627772634035530075, 4.872617573148293246 ) ) ;
#128 = PRESENTATION_STYLE_ASSIGNMENT (( #432 ) ) ;
#129 = ORIENTED_EDGE ( 'NONE', *, *, #215, .T. ) ;
#130 = FACE_OUTER_BOUND ( 'NONE', #303, .T. ) ;
#131 = CARTESIAN_POINT ( 'NONE',  ( -18.80301384080216209, -33.39621331880410793, 3.078519081283302761 ) ) ;
#132 = CARTESIAN_POINT ( 'NONE',  ( -15.10944348277993932, 0.000000000000000000, 0.6707191873234837898 ) ) ;
#133 = DIRECTION ( 'NONE',  ( -0.000000000000000000, -1.000000000000000000, -0.000000000000000000 ) ) ;
#134 = CARTESIAN_POINT ( 'NONE',  ( 18.25100110546652488, -14.99999999999999822, 5.459254404061022470 ) ) ;
#135 = CIRCLE ( 'NONE', #586, 20.05000000000000071 ) ;
#136 = APPLICATION_PROTOCOL_DEFINITION ( 'draft international standard', 'automotive_design', 1998, #704 ) ;
#137 = DIRECTION ( 'NONE',  ( 0.000000000000000000, 1.000000000000000000, 0.000000000000000000 ) ) ;
#138 = VERTEX_POINT ( 'NONE', #29 ) ;
#139 = DIRECTION ( 'NONE',  ( 0.000000000000000000, 0.000000000000000000, -1.000000000000000000 ) ) ;
#140 = CARTESIAN_POINT ( 'NONE',  ( -19.66982702988802245, -44.99999999999999289, 1.357708758099466007 ) ) ;
#141 = CARTESIAN_POINT ( 'NONE',  ( -16.35860123881275996, -41.60413599556881792, 9.783791898496110306 ) ) ;
#142 = ORIENTED_EDGE ( 'NONE', *, *, #786, .F. ) ;
#143 = CARTESIAN_POINT ( 'NONE',  ( -20.00053415475985119, -25.00000000000000000, 1.407527450632976462 ) ) ;
#144 = B_SPLINE_CURVE_WITH_KNOTS ( 'NONE', 3,
 ( #495, #743, #434, #681 ),
 .UNSPECIFIED., .F., .F.,
 ( 4, 4 ),
 ( -0.01994039638992000860, -0.01693786927950782090 ),
 .UNSPECIFIED. ) ;
#145 = CARTESIAN_POINT ( 'NONE',  ( 18.87362134070305686, -25.00000000000000711, 5.703673022298151096 ) ) ;
#146 = CARTESIAN_POINT ( 'NONE',  ( -1.428011982617662490, -44.99926091848038823, 18.99974703273940690 ) ) ;
#147 = ORIENTED_EDGE ( 'NONE', *, *, #194, .F. ) ;
#148 = CARTESIAN_POINT ( 'NONE',  ( 16.54553218637351009, 0.000000000000000000, -11.32465737537689954 ) ) ;
#149 =( BOUNDED_SURFACE ( )  B_SPLINE_SURFACE ( 2, 3, ( 
 ( #429, #798, #675, #437, #607, #494, #253, #2, #489, #309 ),
 ( #679, #191, #64, #187, #683, #501, #302, #132, #365, #564 ),
 ( #11, #238, #497, #732, #178, #736, #555, #425, #672, #119 ) ),
 .UNSPECIFIED., .F., .F., .F. ) 
 B_SPLINE_SURFACE_WITH_KNOTS ( ( 3, 3 ),
 ( 4, 3, 3, 4 ),
 ( 0.000000000000000000, 1.000000000000000000 ),
 ( -0.02220008848053956624, -0.01998705440403862957, -0.01898373892967347015, -0.007154854893272180605 ),
 .UNSPECIFIED. ) 
 GEOMETRIC_REPRESENTATION_ITEM ( )  RATIONAL_B_SPLINE_SURFACE ( (
 ( 1.000000000000000000, 1.000000000000000000, 1.000000000000000000, 1.000000000000000000, 1.000000000000000000, 1.000000000000000000, 1.000000000000000000, 1.000000000000000000, 1.000000000000000000, 1.000000000000000000),
 ( 0.7071067811865475727, 0.7071067811865475727, 0.7071067811865475727, 0.7071067811865475727, 0.7071067811865475727, 0.7071067811865475727, 0.7071067811865475727, 0.7071067811865475727, 0.7071067811865475727, 0.7071067811865475727),
 ( 1.000000000000000000, 1.000000000000000000, 1.000000000000000000, 1.000000000000000000, 1.000000000000000000, 1.000000000000000000, 1.000000000000000000, 1.000000000000000000, 1.000000000000000000, 1.000000000000000000) ) ) 
 REPRESENTATION_ITEM ( '' )  SURFACE ( )  );
#150 = ORIENTED_EDGE ( 'NONE', *, *, #730, .T. ) ;
#151 = CARTESIAN_POINT ( 'NONE',  ( 0.000000000000000000, 60.00000000000000000, 0.000000000000000000 ) ) ;
#152 = ORIENTED_EDGE ( 'NONE', *, *, #333, .F. ) ;
#153 = FACE_OUTER_BOUND ( 'NONE', #691, .T. ) ;
#154 = CARTESIAN_POINT ( 'NONE',  ( 26.03950400638679241, 0.000000000000000000, -7.597660817116435261 ) ) ;
#155 = EDGE_LOOP ( 'NONE', ( #184, #612, #514, #30, #400, #389 ) ) ;
#156 = PLANE ( 'NONE',  #76 ) ;
#157 = CARTESIAN_POINT ( 'NONE',  ( 18.87362134070304265, -14.99999999999999822, 5.703673022298145767 ) ) ;
#158 = STYLED_ITEM ( 'NONE', ( #128 ), #107 ) ;
#159 = B_SPLINE_CURVE_WITH_KNOTS ( 'NONE', 3,
 ( #228, #424, #493, #118, #56, #735, #165, #181, #296, #124, #428, #475, #364, #224, #232, #658, #105, #789, #539, #360, #479, #598, #49, #721, #726, #170, #546, #662 ),
 .UNSPECIFIED., .F., .F.,
 ( 4, 2, 2, 2, 2, 2, 2, 2, 2, 2, 2, 2, 2, 4 ),
 ( 5.141827704983456520E-20, 0.003278622167859542372, 0.004917933251789315292, 0.005737588793754203054, 0.006557244335719091682, 0.009835866503578647932, 0.01147517758750842345, 0.01311448867143820071, 0.01475379975536797623, 0.01639311083929775523, 0.01967173300715730974, 0.02295035517501686426, 0.02458966625894663457, 0.02622897734287640836 ),
 .UNSPECIFIED. ) ;
#160 = CARTESIAN_POINT ( 'NONE',  ( -13.60834339875070498, 0.000000000000000000, -14.72465585138336230 ) ) ;
#161 = CARTESIAN_POINT ( 'NONE',  ( 19.18493145832130864, -25.00000000000001421, 5.825882331416710080 ) ) ;
#162 = CARTESIAN_POINT ( 'NONE',  ( -20.00053415475985474, -26.52153816573555645, 1.407527450632976462 ) ) ;
#163 = CARTESIAN_POINT ( 'NONE',  ( 11.58472735883495375, -43.09014954004317133, 15.13775489527060358 ) ) ;
#164 = CARTESIAN_POINT ( 'NONE',  ( 24.04355720288490161, 0.000000000000000000, -8.381198730241619543 ) ) ;
#165 = CARTESIAN_POINT ( 'NONE',  ( -17.07064082787167436, -0.4472733771026309313, -10.51991656508641348 ) ) ;
#166 = VERTEX_POINT ( 'NONE', #265 ) ;
#167 = CARTESIAN_POINT ( 'NONE',  ( 5.855346740790554172, -44.66095335904338981, 18.13161966216985022 ) ) ;
#168 = EDGE_CURVE ( 'NONE', #561, #18, #60, .T. ) ;
#169 = CARTESIAN_POINT ( 'NONE',  ( 0.000000000000000000, 60.00000000000000000, -20.05000000000000071 ) ) ;
#170 = CARTESIAN_POINT ( 'NONE',  ( -20.00276222012084304, -13.89306849481873840, 1.376872261698219191 ) ) ;
#171 = CARTESIAN_POINT ( 'NONE',  ( 2.970080415618120639, -44.92547796215759348, 18.87593569690442763 ) ) ;
#172 = CARTESIAN_POINT ( 'NONE',  ( -13.33687678960510503, -44.99999999999999289, 0.4036945348711271642 ) ) ;
#173 = CARTESIAN_POINT ( 'NONE',  ( 18.87652589821243865, -1.861599547757059048, -2.616100832349576688 ) ) ;
#174 = ORIENTED_EDGE ( 'NONE', *, *, #168, .T. ) ;
#175 = CARTESIAN_POINT ( 'NONE',  ( 2.235532920020762315, -45.00000000000001421, -0.8278502911794441976 ) ) ;
#176 = CARTESIAN_POINT ( 'NONE',  ( -19.33911990501620437, -44.99999999999999289, 1.307890065565957327 ) ) ;
#177 = DIRECTION ( 'NONE',  ( 0.000000000000000000, 1.000000000000000000, 0.000000000000000000 ) ) ;
#178 = CARTESIAN_POINT ( 'NONE',  ( -21.90425998870029289, 0.000000000000000000, -13.47493461227027289 ) ) ;
#179 = CARTESIAN_POINT ( 'NONE',  ( 18.25100110546652488, -25.00000000000001421, 5.459254404061024246 ) ) ;
#180 = LINE ( 'NONE', #443, #284 ) ;
#181 = CARTESIAN_POINT ( 'NONE',  ( -17.34777111331429822, -0.5580613299485989165, -10.05635422062274742 ) ) ;
#182 = SURFACE_STYLE_FILL_AREA ( #802 ) ;
#183 = EDGE_CURVE ( 'NONE', #83, #251, #340, .T. ) ;
#184 = ORIENTED_EDGE ( 'NONE', *, *, #357, .F. ) ;
#185 = CARTESIAN_POINT ( 'NONE',  ( 19.77306862014201982, -1.348435088455124164, -3.360897208674495484 ) ) ;
#186 = CARTESIAN_POINT ( 'NONE',  ( -9.200593199661634358, -44.72997745962106819, 16.68546933932729814 ) ) ;
#187 = CARTESIAN_POINT ( 'NONE',  ( -20.00053415475983698, 0.000000000000000000, 1.407527450632974020 ) ) ;
#188 = DIRECTION ( 'NONE',  ( 0.000000000000000000, 0.000000000000000000, 1.000000000000000000 ) ) ;
#189 = B_SPLINE_CURVE_WITH_KNOTS ( 'NONE', 3,
 ( #262, #271, #576, #258 ),
 .UNSPECIFIED., .F., .F.,
 ( 4, 4 ),
 ( -4.000001740752584994E-05, -2.797576883519940893E-05 ),
 .UNSPECIFIED. ) ;
#190 = CARTESIAN_POINT ( 'NONE',  ( -18.94643579386873711, -30.42926649790613070, 1.992128754710671634 ) ) ;
#191 = CARTESIAN_POINT ( 'NONE',  ( -21.45942949801379029, 0.000000000000000000, 1.627299729722235355 ) ) ;
#192 = EDGE_LOOP ( 'NONE', ( #405, #277, #464, #760 ) ) ;
#193 = CARTESIAN_POINT ( 'NONE',  ( 17.17855548318556558, -0.2265764575888998822, -8.252971153151559491 ) ) ;
#194 = EDGE_CURVE ( 'NONE', #727, #634, #189, .T. ) ;
#195 = CARTESIAN_POINT ( 'NONE',  ( -11.73428086174425466, 0.000000000000000000, -15.00697013583030071 ) ) ;
#196 = CARTESIAN_POINT ( 'NONE',  ( 19.96790626939802138, -2.024550130096092193, -1.878776315542556752 ) ) ;
#197 = CARTESIAN_POINT ( 'NONE',  ( 18.25100110546652488, 0.000000000000000000, 5.459254404061022470 ) ) ;
#198 = CARTESIAN_POINT ( 'NONE',  ( -17.37957581793745021, -39.95776730216989847, 7.806364544269995598 ) ) ;
#199 = CARTESIAN_POINT ( 'NONE',  ( 15.95748455052292059, 0.000000000000000000, -11.55550401748386946 ) ) ;
#200 = ORIENTED_EDGE ( 'NONE', *, *, #456, .F. ) ;
#201 =( BOUNDED_SURFACE ( )  B_SPLINE_SURFACE ( 2, 3, ( 
 ( #775, #154, #534, #783, #474, #164, #411, #600, #538, #52 ),
 ( #317, #84, #385, #423, #80, #295, #197, #670, #567, #322 ),
 ( #419, #550, #570, #635, #609, #574, #134, #605, #751, #117 ) ),
 .UNSPECIFIED., .F., .F., .T. ) 
 B_SPLINE_SURFACE_WITH_KNOTS ( ( 3, 3 ),
 ( 4, 3, 3, 4 ),
 ( 0.000000000000000000, 1.000000000000000000 ),
 ( -0.02220008848053955236, -0.01998705440403862610, -0.01898373892967346321, -0.007154854893272232647 ),
 .UNSPECIFIED. ) 
 GEOMETRIC_REPRESENTATION_ITEM ( )  RATIONAL_B_SPLINE_SURFACE ( (
 ( 1.000000000000000000, 1.000000000000000000, 1.000000000000000000, 1.000000000000000000, 1.000000000000000000, 1.000000000000000000, 1.000000000000000000, 1.000000000000000000, 1.000000000000000000, 1.000000000000000000),
 ( 0.7071067811865475727, 0.7071067811865475727, 0.7071067811865475727, 0.7071067811865475727, 0.7071067811865475727, 0.7071067811865475727, 0.7071067811865475727, 0.7071067811865475727, 0.7071067811865475727, 0.7071067811865475727),
 ( 1.000000000000000000, 1.000000000000000000, 1.000000000000000000, 1.000000000000000000, 1.000000000000000000, 1.000000000000000000, 1.000000000000000000, 1.000000000000000000, 1.000000000000000000, 1.000000000000000000) ) ) 
 REPRESENTATION_ITEM ( '' )  SURFACE ( )  );
#202 = CARTESIAN_POINT ( 'NONE',  ( -18.99860883816602453, -28.14470631303828796, 1.445471300476855347 ) ) ;
#203 = DIRECTION ( 'NONE',  ( 0.000000000000000000, 0.000000000000000000, -1.000000000000000000 ) ) ;
#204 = ORIENTED_EDGE ( 'NONE', *, *, #614, .F. ) ;
#205 = DIRECTION ( 'NONE',  ( 0.000000000000000000, -1.000000000000000000, 0.000000000000000000 ) ) ;
#206 = ORIENTED_EDGE ( 'NONE', *, *, #324, .T. ) ;
#207 = CARTESIAN_POINT ( 'NONE',  ( -18.97869935245609341, -6.108984409884407718, -1.685330714359486892 ) ) ;
#208 = CARTESIAN_POINT ( 'NONE',  ( 19.18493145832130864, -45.00000000000000000, 5.825882331416710080 ) ) ;
#209 = AXIS2_PLACEMENT_3D ( 'NONE', #589, #205, #402 ) ;
#210 = ORIENTED_EDGE ( 'NONE', *, *, #786, .T. ) ;
#211 = CARTESIAN_POINT ( 'NONE',  ( -14.95137924069426205, -0.2152551494610532301, -11.85877189785263397 ) ) ;
#212 = DIRECTION ( 'NONE',  ( 0.000000000000000000, 1.000000000000000000, 0.000000000000000000 ) ) ;
#213 = VERTEX_POINT ( 'NONE', #26 ) ;
#214 = CARTESIAN_POINT ( 'NONE',  ( -19.01800402478910001, -12.75718487133395662, 1.131540403516291704 ) ) ;
#215 = EDGE_CURVE ( 'NONE', #213, #454, #404, .T. ) ;
#216 = CARTESIAN_POINT ( 'NONE',  ( 9.938868961430916471, -44.14276958799921147, 17.42866950772956258 ) ) ;
#217 = CARTESIAN_POINT ( 'NONE',  ( -19.85606647517905188, -32.37008804872117906, 2.793408525974141021 ) ) ;
#218 = CARTESIAN_POINT ( 'NONE',  ( -18.47778530227802207, -3.186582786488257213, -4.639376216447576695 ) ) ;
#219 = CARTESIAN_POINT ( 'NONE',  ( 19.18493145832131219, -25.76064517059924697, 5.825882331416710080 ) ) ;
#220 = VECTOR ( 'NONE', #28, 1000.000000000000000 ) ;
#221 = CARTESIAN_POINT ( 'NONE',  ( -15.12466606183096474, -43.49815843439956353, 13.18218784460735016 ) ) ;
#222 = CARTESIAN_POINT ( 'NONE',  ( 13.87523326447055183, -45.00000000000000711, 25.22735674352941260 ) ) ;
#223 = CARTESIAN_POINT ( 'NONE',  ( 17.86572493412930385, -36.35651778213089358, 9.103157762554712207 ) ) ;
#224 = CARTESIAN_POINT ( 'NONE',  ( -19.43654438744449919, -2.844054467060540325, -4.944002693817821203 ) ) ;
#225 = CARTESIAN_POINT ( 'NONE',  ( -13.31825410781861585, -44.21045321647969217, 14.99210593353229370 ) ) ;
#226 = CARTESIAN_POINT ( 'NONE',  ( 17.02554427664899350, -36.20786126393238646, 8.596778902027462976 ) ) ;
#227 = CARTESIAN_POINT ( 'NONE',  ( 19.18493145832130864, -15.00000000000000711, 5.825882331416710080 ) ) ;
#228 = CARTESIAN_POINT ( 'NONE',  ( -13.60834339875070498, 0.000000000000000000, -14.72465585138336230 ) ) ;
#229 = CARTESIAN_POINT ( 'NONE',  ( 21.18356123753736853, -45.00000000000000711, 6.610473485634471125 ) ) ;
#230 = EDGE_CURVE ( 'NONE', #454, #213, #457, .T. ) ;
#231 = CARTESIAN_POINT ( 'NONE',  ( 18.56520854580476509, -33.41709143310463048, 7.573823827132127207 ) ) ;
#232 = CARTESIAN_POINT ( 'NONE',  ( -19.54159762032697145, -3.156359186069992440, -4.507036944547933466 ) ) ;
#233 = ORIENTED_EDGE ( 'NONE', *, *, #625, .T. ) ;
#234 = CARTESIAN_POINT ( 'NONE',  ( 18.05249231945692401, -30.13289133016461108, 6.085780697278858398 ) ) ;
#235 = VECTOR ( 'NONE', #488, 1000.000000000000000 ) ;
#236 = CARTESIAN_POINT ( 'NONE',  ( -4.686096853982792965, -45.00000000000000000, 19.32617552386946258 ) ) ;
#237 = CARTESIAN_POINT ( 'NONE',  ( 0.000000000000000000, 60.00000000000000000, -19.05000000000000071 ) ) ;
#238 = CARTESIAN_POINT ( 'NONE',  ( -23.69386245682606784, 0.000000000000000000, -13.20534364064750754 ) ) ;
#239 = CARTESIAN_POINT ( 'NONE',  ( 11.25398325001796707, -45.00000000000000711, 24.19834697107452826 ) ) ;
#240 = DIRECTION ( 'NONE',  ( 0.000000000000000000, -1.000000000000000000, 0.000000000000000000 ) ) ;
#241 = EDGE_CURVE ( 'NONE', #65, #746, #91, .T. ) ;
#242 = CARTESIAN_POINT ( 'NONE',  ( 18.67721739381417834, -7.967084170811804533, 3.758409665305164626 ) ) ;
#243 = CARTESIAN_POINT ( 'NONE',  ( -6.577880165992380235, -45.00000000000001421, 19.00142827517224120 ) ) ;
#244 = CARTESIAN_POINT ( 'NONE',  ( -2.134456096120464608, -45.00000000000000000, 18.93004482756800400 ) ) ;
#245 = CARTESIAN_POINT ( 'NONE',  ( -15.40216205330612631, -42.54029971656050435, 11.21596634858784469 ) ) ;
#246 = FILL_AREA_STYLE_COLOUR ( '', #416 ) ;
#247 = CARTESIAN_POINT ( 'NONE',  ( -5.104830764899403128, -45.00000000000000000, 19.38925482997571947 ) ) ;
#248 = CIRCLE ( 'NONE', #209, 20.05000000000000071 ) ;
#249 = CARTESIAN_POINT ( 'NONE',  ( -18.37955856890376438, -36.78578932612039409, 5.028789149258879654 ) ) ;
#250 = PLANE ( 'NONE',  #512 ) ;
#251 = VERTEX_POINT ( 'NONE', #517 ) ;
#252 = CARTESIAN_POINT ( 'NONE',  ( 20.05041767304318512, -2.869384559596762863, -0.4536450391903461554 ) ) ;
#253 = CARTESIAN_POINT ( 'NONE',  ( -19.00841278014438629, -14.99999999999999822, 1.258071373032448648 ) ) ;
#254 = CARTESIAN_POINT ( 'NONE',  ( 16.85819550414704082, 1.058791184067871418E-17, -10.86785053202209461 ) ) ;
#255 = B_SPLINE_CURVE_WITH_KNOTS ( 'NONE', 3,
 ( #43, #716, #710, #661, #97, #777, #104, #347, #36, #216, #597, #587, #792, #647, #283, #403, #713, #651, #478, #94, #335, #720, #407, #109, #339, #223, #48, #276, #292, #231, #591, #39, #287, #530, #101, #469, #280, #352, #219, #161 ),
 .UNSPECIFIED., .F., .F.,
 ( 4, 2, 2, 2, 2, 2, 2, 2, 2, 2, 2, 2, 2, 2, 2, 2, 2, 2, 2, 4 ),
 ( 1.517883041479706208E-18, 0.004504214563280677618, 0.005630268204100847239, 0.006756321844921015125, 0.009008429126561358705, 0.01126053640820170315, 0.01238659004902187798, 0.01351264368984205280, 0.01576475097148240939, 0.01689080461230258942, 0.01801685825312276598, 0.02252107281640349304, 0.02364712645722366613, 0.02477318009804383575, 0.02702528737968416458, 0.02815134102050433421, 0.02927739466132449689, 0.03152950194296483266, 0.03378160922460517190, 0.03603371650624551115 ),
 .UNSPECIFIED. ) ;
#256 = CARTESIAN_POINT ( 'NONE',  ( -17.02129020967680617, -45.00000000000000000, 21.18438527779262870 ) ) ;
#257 = CARTESIAN_POINT ( 'NONE',  ( -8.160553479116920528, -44.83726012336732225, 17.23139797322425792 ) ) ;
#258 = CARTESIAN_POINT ( 'NONE',  ( -2.134456096120464608, -45.00000000000000000, 18.93004482756800400 ) ) ;
#259 = VERTEX_POINT ( 'NONE', #458 ) ;
#260 = CARTESIAN_POINT ( 'NONE',  ( 0.9854391365564877381, -45.00000000000000000, 18.47179868570814065 ) ) ;
#261 = CARTESIAN_POINT ( 'NONE',  ( -2.524257932795985315, -44.99993767649056053, 18.88609274440555907 ) ) ;
#262 = CARTESIAN_POINT ( 'NONE',  ( -2.135803175658686825, -45.00000000000000711, 18.94199179429356050 ) ) ;
#263 = ORIENTED_EDGE ( 'NONE', *, *, #346, .F. ) ;
#264 = CARTESIAN_POINT ( 'NONE',  ( -19.05157097406651445, -8.997112188829998303, 0.008307331921518957760 ) ) ;
#265 = CARTESIAN_POINT ( 'NONE',  ( 2.455416832290443586E-15, 60.00000000000000000, 20.05000000000000071 ) ) ;
#266 = ORIENTED_EDGE ( 'NONE', *, *, #477, .T. ) ;
#267 = CARTESIAN_POINT ( 'NONE',  ( -19.04143643456257351, -10.58168097837225652, 0.6013213019470664555 ) ) ;
#268 = CARTESIAN_POINT ( 'NONE',  ( 0.000000000000000000, 60.00000000000000000, 0.000000000000000000 ) ) ;
#269 = ORIENTED_EDGE ( 'NONE', *, *, #769, .T. ) ;
#270 = DIRECTION ( 'NONE',  ( 0.000000000000000000, 0.000000000000000000, 1.000000000000000000 ) ) ;
#271 = CARTESIAN_POINT ( 'NONE',  ( -2.135354267316358801, -45.00000000000000711, 18.93801052008032215 ) ) ;
#272 = AXIS2_PLACEMENT_3D ( 'NONE', #319, #388, #629 ) ;
#273 = ORIENTED_EDGE ( 'NONE', *, *, #92, .T. ) ;
#274 = CARTESIAN_POINT ( 'NONE',  ( -18.73696048469274444, -4.027076438855268670, -3.553391826438185852 ) ) ;
#275 = ADVANCED_FACE ( 'NONE', ( #583 ), #579, .T. ) ;
#276 = CARTESIAN_POINT ( 'NONE',  ( 18.22527533652709053, -35.09110618969821616, 8.366947742952078215 ) ) ;
#277 = ORIENTED_EDGE ( 'NONE', *, *, #649, .T. ) ;
#278 = CARTESIAN_POINT ( 'NONE',  ( 18.25100110546652488, -45.00000000000000000, 5.459254404061024246 ) ) ;
#279 = PRODUCT_RELATED_PRODUCT_CATEGORY ( 'part', '', ( #460 ) ) ;
#280 = CARTESIAN_POINT ( 'NONE',  ( 19.12131833368328060, -28.02118739989185769, 6.032003699906356431 ) ) ;
#281 = CARTESIAN_POINT ( 'NONE',  ( -17.76130672555582635, -41.11240975528161101, 9.307930448636952292 ) ) ;
#282 = CARTESIAN_POINT ( 'NONE',  ( 17.98720363955490598, -30.84747164126120111, 6.278796305932906385 ) ) ;
#283 = CARTESIAN_POINT ( 'NONE',  ( 12.60333026567215953, -43.10738466697561933, 15.59737986863689052 ) ) ;
#284 = VECTOR ( 'NONE', #545, 1000.000000000000000 ) ;
#285 = CARTESIAN_POINT ( 'NONE',  ( -18.55495707691806828, -39.76256659048942765, 7.690653922029807354 ) ) ;
#286 = CARTESIAN_POINT ( 'NONE',  ( 17.71828871484215284, -32.95046838817697932, 7.004736104041915823 ) ) ;
#287 = CARTESIAN_POINT ( 'NONE',  ( 18.77826600444328875, -32.01751800469505582, 7.028165280810381610 ) ) ;
#288 = CARTESIAN_POINT ( 'NONE',  ( 18.29630856207833389, -12.74721079087075992, 5.305815818743975676 ) ) ;
#289 = CARTESIAN_POINT ( 'NONE',  ( -17.90139505703847433, -40.89446932940221302, 9.035039326367506618 ) ) ;
#290 = EDGE_CURVE ( 'NONE', #366, #166, #560, .T. ) ;
#291 = CARTESIAN_POINT ( 'NONE',  ( 5.143452469255921145, -44.74136767647144097, 18.34626974959694934 ) ) ;
#292 = CARTESIAN_POINT ( 'NONE',  ( 18.37428382254024228, -34.43431767303346902, 8.031020910404938817 ) ) ;
#293 = CARTESIAN_POINT ( 'NONE',  ( 19.04339227365012377, -4.017194241596867776, 0.6473983277224799604 ) ) ;
#294 = DIRECTION ( 'NONE',  ( 0.000000000000000000, -0.000000000000000000, -1.000000000000000000 ) ) ;
#295 = CARTESIAN_POINT ( 'NONE',  ( 18.56231122308478376, 0.000000000000000000, 5.581463713179584119 ) ) ;
#296 = CARTESIAN_POINT ( 'NONE',  ( -17.48042207890597410, -0.6186995034909400504, -9.823836470979307123 ) ) ;
#297 = CARTESIAN_POINT ( 'NONE',  ( 19.18493145832130864, -25.00000000000001421, 5.825882331416710080 ) ) ;
#298 = CARTESIAN_POINT ( 'NONE',  ( 14.87454815407858355, -45.00000000000000711, 25.61965232063829134 ) ) ;
#299 = ADVANCED_FACE ( 'NONE', ( #17 ), #766, .F. ) ;
#300 = CARTESIAN_POINT ( 'NONE',  ( -19.00841278014438629, -45.00000000000000000, 1.258071373032447537 ) ) ;
#301 = DIRECTION ( 'NONE',  ( 0.000000000000000000, 0.000000000000000000, 1.000000000000000000 ) ) ;
#302 = CARTESIAN_POINT ( 'NONE',  ( -19.00841278014438629, 0.000000000000000000, 1.258071373032448426 ) ) ;
#303 = EDGE_LOOP ( 'NONE', ( #129, #722, #206, #210, #621, #588, #767, #485 ) ) ;
#304 = CARTESIAN_POINT ( 'NONE',  ( 19.90915216049495129, -5.406200532461022057, 2.397193983758614255 ) ) ;
#305 = DIRECTION ( 'NONE',  ( 0.000000000000000000, -0.000000000000000000, 1.000000000000000000 ) ) ;
#306 = VERTEX_POINT ( 'NONE', #754 ) ;
#307 = CARTESIAN_POINT ( 'NONE',  ( 20.00689545381911216, -2.286354474053255093, -1.396129286640860556 ) ) ;
#308 = CARTESIAN_POINT ( 'NONE',  ( -2.134456096120464608, -45.00000000000000000, 18.93004482756800400 ) ) ;
#309 = CARTESIAN_POINT ( 'NONE',  ( -7.311504888051052475, -14.99999999999999822, -0.5039851840944458150 ) ) ;
#310 = EDGE_LOOP ( 'NONE', ( #433, #676, #273, #648, #23, #174 ) ) ;
#311 = CARTESIAN_POINT ( 'NONE',  ( 20.05458101173818974, -3.184367390808803489, -0.003836169139791424047 ) ) ;
#312 = CARTESIAN_POINT ( 'NONE',  ( -13.27221977950032183, -43.85904467955378294, 13.74635875886069591 ) ) ;
#313 = CARTESIAN_POINT ( 'NONE',  ( 14.78138927882175224, 0.000000000000000000, -12.01719730169782707 ) ) ;
#314 = CARTESIAN_POINT ( 'NONE',  ( 17.51898901481660076, -0.3474234571437468944, -7.487688176910405780 ) ) ;
#315 = DIRECTION ( 'NONE',  ( 0.000000000000000000, 0.000000000000000000, 1.000000000000000000 ) ) ;
#316 = CARTESIAN_POINT ( 'NONE',  ( 0.000000000000000000, 60.00000000000000000, 0.000000000000000000 ) ) ;
#317 = CARTESIAN_POINT ( 'NONE',  ( 21.24492131071936285, 0.000000000000000000, 6.634561273748799337 ) ) ;
#318 = CARTESIAN_POINT ( 'NONE',  ( 0.000000000000000000, 0.000000000000000000, 0.000000000000000000 ) ) ;
#319 = CARTESIAN_POINT ( 'NONE',  ( 0.000000000000000000, 60.00000000000000000, 0.000000000000000000 ) ) ;
#320 = ORIENTED_EDGE ( 'NONE', *, *, #477, .F. ) ;
#321 = PRODUCT_DEFINITION_CONTEXT ( 'detailed design', #15, 'design' ) ;
#322 = CARTESIAN_POINT ( 'NONE',  ( 7.240153446623583733, 0.000000000000000000, 1.136786199391290220 ) ) ;
#323 = CIRCLE ( 'NONE', #660, 20.05000000000000071 ) ;
#324 = EDGE_CURVE ( 'NONE', #417, #634, #779, .T. ) ;
#325 = CARTESIAN_POINT ( 'NONE',  ( -2.134456096120464608, -45.00000000000000000, 18.93004482756800400 ) ) ;
#326 = VERTEX_POINT ( 'NONE', #21 ) ;
#327 = DIRECTION ( 'NONE',  ( 0.9888428913579826451, 0.000000000000000000, -0.1489621972541516626 ) ) ;
#328 = CARTESIAN_POINT ( 'NONE',  ( 14.78138927882175224, 0.000000000000000000, -12.01719730169782707 ) ) ;
#329 = EDGE_LOOP ( 'NONE', ( #695, #642, #87, #200, #700, #446, #667 ) ) ;
#330 = CARTESIAN_POINT ( 'NONE',  ( -20.00053415475983343, -45.00000000000000000, 1.407527450632973354 ) ) ;
#331 = CARTESIAN_POINT ( 'NONE',  ( -19.33911990501620437, -14.99999999999999822, 1.307890065565956661 ) ) ;
#332 = ORIENTED_EDGE ( 'NONE', *, *, #290, .T. ) ;
#333 = EDGE_CURVE ( 'NONE', #772, #746, #368, .T. ) ;
#334 = CARTESIAN_POINT ( 'NONE',  ( 22.18287612714539847, -25.00000000000000711, 7.002769062743349870 ) ) ;
#335 = CARTESIAN_POINT ( 'NONE',  ( 15.40938207512385461, -40.92932959512445024, 12.83143111914733048 ) ) ;
#336 = VECTOR ( 'NONE', #463, 1000.000000000000000 ) ;
#337 = ORIENTED_EDGE ( 'NONE', *, *, #614, .T. ) ;
#338 = CARTESIAN_POINT ( 'NONE',  ( 19.18493145832130864, -25.00000000000000711, 5.825882331416710080 ) ) ;
#339 = CARTESIAN_POINT ( 'NONE',  ( 17.66015784249903575, -36.97029244448933838, 9.495811373966388302 ) ) ;
#340 = B_SPLINE_CURVE_WITH_KNOTS ( 'NONE', 3,
 ( #396, #569, #331, #771 ),
 .UNSPECIFIED., .F., .F.,
 ( 4, 4 ),
 ( -0.01998705440403862263, -0.01898373892967347015 ),
 .UNSPECIFIED. ) ;
#341 = CARTESIAN_POINT ( 'NONE',  ( -19.70301802334956776, -34.41617838202208191, 3.728439325566438090 ) ) ;
#342 = CARTESIAN_POINT ( 'NONE',  ( -16.74987572594419660, -0.8871578072499320955, -9.090128545499158719 ) ) ;
#343 = CARTESIAN_POINT ( 'NONE',  ( -19.66982702988803311, -25.00000000000000000, 1.357708758099468227 ) ) ;
#344 = ORIENTED_EDGE ( 'NONE', *, *, #507, .T. ) ;
#345 = CARTESIAN_POINT ( 'NONE',  ( 7.243077590796062282, -44.45974340798677815, 17.63469058059322236 ) ) ;
#346 = EDGE_CURVE ( 'NONE', #166, #565, #399, .T. ) ;
#347 = CARTESIAN_POINT ( 'NONE',  ( 7.965612864991115316, -44.56478581244531512, 18.41505352371147453 ) ) ;
#348 = CARTESIAN_POINT ( 'NONE',  ( 17.82973657755202623, -0.4936958124803690340, -6.714135912390620575 ) ) ;
#349 = CIRCLE ( 'NONE', #444, 19.05000000000000071 ) ;
#350 = CARTESIAN_POINT ( 'NONE',  ( -19.92022919618833754, -30.93598661031246166, 2.291500781374530948 ) ) ;
#351 = CARTESIAN_POINT ( 'NONE',  ( -5.072795053046054825, -45.00000000000001421, 17.78903296671550294 ) ) ;
#352 = CARTESIAN_POINT ( 'NONE',  ( 19.17231696527144180, -26.52183277543525364, 5.867891072344608716 ) ) ;
#353 = CARTESIAN_POINT ( 'NONE',  ( 18.26027873418495773, -13.86953117973018834, 5.428518126624163109 ) ) ;
#354 = FACE_OUTER_BOUND ( 'NONE', #69, .T. ) ;
#355 = CARTESIAN_POINT ( 'NONE',  ( -19.66982702988803311, -25.00000000000000000, 1.357708758099468005 ) ) ;
#356 = DIRECTION ( 'NONE',  ( 0.000000000000000000, 0.000000000000000000, 1.000000000000000000 ) ) ;
#357 = EDGE_CURVE ( 'NONE', #12, #65, #255, .T. ) ;
#358 = CARTESIAN_POINT ( 'NONE',  ( 6.206148843117262892, -44.61533323253321015, 18.01448619172811760 ) ) ;
#359 = CARTESIAN_POINT ( 'NONE',  ( -5.104830764899403128, -45.00000000000000000, 19.38925482997571947 ) ) ;
#360 = CARTESIAN_POINT ( 'NONE',  ( -20.03197674518203897, -6.673350633100737284, -1.091734620786872556 ) ) ;
#361 = CYLINDRICAL_SURFACE ( 'NONE', #596, 20.05000000000000071 ) ;
#362 = ORIENTED_EDGE ( 'NONE', *, *, #7, .T. ) ;
#363 = CARTESIAN_POINT ( 'NONE',  ( 12.91251171031793632, -25.00000000000000711, 3.363552838980867765 ) ) ;
#364 = CARTESIAN_POINT ( 'NONE',  ( -19.18414235021483805, -2.268156922519827035, -5.847315849881195682 ) ) ;
#365 = CARTESIAN_POINT ( 'NONE',  ( -11.21047418541549412, 0.000000000000000000, 0.08336700161451893187 ) ) ;
#366 = VERTEX_POINT ( 'NONE', #169 ) ;
#367 = CARTESIAN_POINT ( 'NONE',  ( 19.22125846532379612, -12.80482657699335114, 5.709890806543161723 ) ) ;
#368 = B_SPLINE_CURVE_WITH_KNOTS ( 'NONE', 3,
 ( #788, #657, #157, #227 ),
 .UNSPECIFIED., .F., .F.,
 ( 4, 4 ),
 ( -0.01037120444413831312, -0.009367888969773151969 ),
 .UNSPECIFIED. ) ;
#369 = ORIENTED_EDGE ( 'NONE', *, *, #241, .F. ) ;
#370 = CYLINDRICAL_SURFACE ( 'NONE', #86, 19.05000000000000071 ) ;
#371 = EDGE_CURVE ( 'NONE', #138, #638, #50, .T. ) ;
#372 = CARTESIAN_POINT ( 'NONE',  ( -3.690706355388906346, -44.99469060837686385, 18.69323106809022406 ) ) ;
#373 = CARTESIAN_POINT ( 'NONE',  ( -10.64526015667768277, -44.75221421826808665, 17.00712936946909082 ) ) ;
#374 = CARTESIAN_POINT ( 'NONE',  ( 19.35906701994612789, -10.67482964330133477, 5.221251390087233268 ) ) ;
#375 = CARTESIAN_POINT ( 'NONE',  ( 0.000000000000000000, 0.000000000000000000, 0.000000000000000000 ) ) ;
#376 = CIRCLE ( 'NONE', #573, 19.05000000000000071 ) ;
#377 = PRODUCT_CONTEXT ( 'NONE', #704, 'mechanical' ) ;
#378 = DIRECTION ( 'NONE',  ( -0.000000000000000000, -1.000000000000000000, -0.000000000000000000 ) ) ;
#379 = CARTESIAN_POINT ( 'NONE',  ( 0.5800985328622068060, -45.00000000000000000, -1.477715108595482496 ) ) ;
#380 = CARTESIAN_POINT ( 'NONE',  ( -7.665340799065825550, -44.99999999999999289, -0.4506823032901945969 ) ) ;
#381 = CARTESIAN_POINT ( 'NONE',  ( 19.18493145832130864, -25.00000000000001421, 5.825882331416710080 ) ) ;
#382 = DIRECTION ( 'NONE',  ( 0.000000000000000000, 0.000000000000000000, 1.000000000000000000 ) ) ;
#383 = ORIENTED_EDGE ( 'NONE', *, *, #71, .T. ) ;
#384 = ADVANCED_FACE ( 'NONE', ( #525 ), #201, .T. ) ;
#385 = CARTESIAN_POINT ( 'NONE',  ( 19.87159474245399693, 0.000000000000000000, 6.095441978860739241 ) ) ;
#386 = PRODUCT_DEFINITION_SHAPE ( 'NONE', 'NONE',  #752 ) ;
#387 = CARTESIAN_POINT ( 'NONE',  ( -9.542421170104020689, -44.68848545853041543, 16.49241906532480328 ) ) ;
#388 = DIRECTION ( 'NONE',  ( 0.000000000000000000, 1.000000000000000000, 0.000000000000000000 ) ) ;
#389 = ORIENTED_EDGE ( 'NONE', *, *, #795, .F. ) ;
#390 = CARTESIAN_POINT ( 'NONE',  ( 2.455416832290443586E-15, -45.00000000000000000, 20.05000000000000071 ) ) ;
#391 = CIRCLE ( 'NONE', #724, 20.05000000000000071 ) ;
#392 = FACE_OUTER_BOUND ( 'NONE', #645, .T. ) ;
#393 = ORIENTED_EDGE ( 'NONE', *, *, #395, .F. ) ;
#394 = CARTESIAN_POINT ( 'NONE',  ( -19.00841278014438984, -13.86790097390793974, 1.258071373032448426 ) ) ;
#395 = EDGE_CURVE ( 'NONE', #565, #617, #391, .T. ) ;
#396 = CARTESIAN_POINT ( 'NONE',  ( -20.00053415475983343, -15.00000000000000711, 1.407527450632973354 ) ) ;
#397 = EDGE_LOOP ( 'NONE', ( #263, #742, #383, #233, #150, #320, #362, #393 ) ) ;
#398 = CARTESIAN_POINT ( 'NONE',  ( 0.000000000000000000, 60.00000000000000000, 0.000000000000000000 ) ) ;
#399 = LINE ( 'NONE', #466, #575 ) ;
#400 = ORIENTED_EDGE ( 'NONE', *, *, #602, .F. ) ;
#401 = B_SPLINE_CURVE_WITH_KNOTS ( 'NONE', 3,
 ( #359, #14, #82, #729 ),
 .UNSPECIFIED., .F., .F.,
 ( 4, 4 ),
 ( -0.007936141616050162995, -0.004933614505637977030 ),
 .UNSPECIFIED. ) ;
#402 = DIRECTION ( 'NONE',  ( 0.000000000000000000, 0.000000000000000000, -1.000000000000000000 ) ) ;
#403 = CARTESIAN_POINT ( 'NONE',  ( 13.39924193294183219, -42.66087114242350964, 14.93122854393303811 ) ) ;
#404 = CIRCLE ( 'NONE', #738, 19.05000000000000071 ) ;
#405 = ORIENTED_EDGE ( 'NONE', *, *, #420, .T. ) ;
#406 = LINE ( 'NONE', #278, #484 ) ;
#407 = CARTESIAN_POINT ( 'NONE',  ( 16.95644536127883484, -38.74269516896744392, 10.74254843289195627 ) ) ;
#408 = CARTESIAN_POINT ( 'NONE',  ( -19.63317784517531805, -35.07072619412509340, 4.086935125386725431 ) ) ;
#409 = CARTESIAN_POINT ( 'NONE',  ( 18.56231122308478376, -25.00000000000000711, 5.581463713179585895 ) ) ;
#410 = EDGE_CURVE ( 'NONE', #454, #417, #180, .T. ) ;
#411 = CARTESIAN_POINT ( 'NONE',  ( 23.73224708526663917, 0.000000000000000000, -8.503408039360182968 ) ) ;
#412 = CARTESIAN_POINT ( 'NONE',  ( 18.73104587284338152, -7.472643212521846046, 3.484647326632396513 ) ) ;
#413 = CARTESIAN_POINT ( 'NONE',  ( -14.12413423166771409, -43.93731152725509759, 14.23541299214357458 ) ) ;
#414 = CARTESIAN_POINT ( 'NONE',  ( 18.56231122308478376, -45.00000000000000711, 5.581463713179585895 ) ) ;
#415 = CARTESIAN_POINT ( 'NONE',  ( 17.92460600504092483, -0.5492267388042849641, -6.456410835124668068 ) ) ;
#416 = COLOUR_RGB ( '',0.7921568627450980005, 0.8196078431372548767, 0.9333333333333333481 ) ;
#417 = VERTEX_POINT ( 'NONE', #25 ) ;
#418 = CARTESIAN_POINT ( 'NONE',  ( 1.496338955517274361, -44.96984014388460338, 19.04999999999965254 ) ) ;
#419 = CARTESIAN_POINT ( 'NONE',  ( 21.24492131071935574, -14.99999999999999822, 6.634561273748799337 ) ) ;
#420 = EDGE_CURVE ( 'NONE', #617, #727, #401, .T. ) ;
#421 = CARTESIAN_POINT ( 'NONE',  ( 0.000000000000000000, 0.000000000000000000, 0.000000000000000000 ) ) ;
#422 = FACE_OUTER_BOUND ( 'NONE', #192, .T. ) ;
#423 = CARTESIAN_POINT ( 'NONE',  ( 19.18493145832130864, 0.000000000000000000, 5.825882331416708304 ) ) ;
#424 = CARTESIAN_POINT ( 'NONE',  ( -14.42065004820477903, 0.000000000000000000, -13.97393217115410025 ) ) ;
#425 = CARTESIAN_POINT ( 'NONE',  ( -17.34387644159221509, 0.000000000000000000, -14.16192418304625456 ) ) ;
#426 = CARTESIAN_POINT ( 'NONE',  ( 18.25100110546652488, -25.00000000000000711, 5.459254404061023358 ) ) ;
#427 =( BOUNDED_SURFACE ( )  B_SPLINE_SURFACE ( 2, 3, ( 
 ( #55, #665, #447, #256, #440, #725, #685, #689, #236, #260 ),
 ( #627, #113, #796, #506, #140, #176, #756, #172, #380, #631 ),
 ( #19, #511, #692, #143, #355, #709, #455, #88, #712, #38 ) ),
 .UNSPECIFIED., .F., .F., .F. ) 
 B_SPLINE_SURFACE_WITH_KNOTS ( ( 3, 3 ),
 ( 4, 3, 3, 4 ),
 ( 0.000000000000000000, 1.000000000000000000 ),
 ( -0.02321507675053714748, -0.01998705440403862957, -0.01898373892967347015, -0.001777155234409603587 ),
 .UNSPECIFIED. ) 
 GEOMETRIC_REPRESENTATION_ITEM ( )  RATIONAL_B_SPLINE_SURFACE ( (
 ( 1.000000000000000000, 1.000000000000000000, 1.000000000000000000, 1.000000000000000000, 1.000000000000000000, 1.000000000000000000, 1.000000000000000000, 1.000000000000000000, 1.000000000000000000, 1.000000000000000000),
 ( 0.7071067811865475727, 0.7071067811865475727, 0.7071067811865475727, 0.7071067811865475727, 0.7071067811865475727, 0.7071067811865475727, 0.7071067811865475727, 0.7071067811865475727, 0.7071067811865475727, 0.7071067811865475727),
 ( 1.000000000000000000, 1.000000000000000000, 1.000000000000000000, 1.000000000000000000, 1.000000000000000000, 1.000000000000000000, 1.000000000000000000, 1.000000000000000000, 1.000000000000000000, 1.000000000000000000) ) ) 
 REPRESENTATION_ITEM ( '' )  SURFACE ( )  );
#428 = CARTESIAN_POINT ( 'NONE',  ( -18.53161056425972930, -1.303158744969139304, -7.718045789694260250 ) ) ;
#429 = CARTESIAN_POINT ( 'NONE',  ( -22.18887716964076517, -14.99999999999999822, 1.737185869266866023 ) ) ;
#430 = CARTESIAN_POINT ( 'NONE',  ( -20.00053415475983343, -25.00000000000000711, 1.407527450632973354 ) ) ;
#431 = CARTESIAN_POINT ( 'NONE',  ( -5.984757864255223048, -44.95436425762631671, 18.10238341721586508 ) ) ;
#432 = SURFACE_STYLE_USAGE ( .BOTH. , #741 ) ;
#433 = ORIENTED_EDGE ( 'NONE', *, *, #456, .T. ) ;
#434 = CARTESIAN_POINT ( 'NONE',  ( -0.2725466192184034520, -45.00000000000000711, 19.67344022332411768 ) ) ;
#435 = EDGE_CURVE ( 'NONE', #138, #251, #102, .T. ) ;
#436 = CARTESIAN_POINT ( 'NONE',  ( -19.00841278014438629, -25.00000000000000711, 1.258071373032447537 ) ) ;
#437 = CARTESIAN_POINT ( 'NONE',  ( -20.00053415475983698, -14.99999999999999822, 1.407527450632974020 ) ) ;
#438 = ORIENTED_EDGE ( 'NONE', *, *, #696, .F. ) ;
#439 = CARTESIAN_POINT ( 'NONE',  ( 19.45102075010974829, -0.8243686737515247831, -4.893568217023921640 ) ) ;
#440 = CARTESIAN_POINT ( 'NONE',  ( -16.69058308480498809, -45.00000000000000000, 21.13456658525911891 ) ) ;
#441 = CARTESIAN_POINT ( 'NONE',  ( -10.54563259415768428, -44.53620602767615821, 15.86956963279496868 ) ) ;
#442 = CARTESIAN_POINT ( 'NONE',  ( 19.57354689372526124, -0.9831344070400209745, -4.375629635064997025 ) ) ;
#443 = CARTESIAN_POINT ( 'NONE',  ( 2.332952152375708043E-15, 60.00000000000000000, 19.05000000000000071 ) ) ;
#444 = AXIS2_PLACEMENT_3D ( 'NONE', #421, #666, #356 ) ;
#445 = CARTESIAN_POINT ( 'NONE',  ( 0.000000000000000000, 60.00000000000000000, 0.000000000000000000 ) ) ;
#446 = ORIENTED_EDGE ( 'NONE', *, *, #529, .F. ) ;
#447 = CARTESIAN_POINT ( 'NONE',  ( -18.08529252650339458, -45.00000000000000000, 21.34466971163260496 ) ) ;
#448 = CARTESIAN_POINT ( 'NONE',  ( 18.56231122308479442, -25.00000000000000711, 5.581463713179589448 ) ) ;
#449 =( BOUNDED_SURFACE ( )  B_SPLINE_SURFACE ( 2, 3, ( 
 ( #334, #585, #35, #338, #794, #409, #426, #363, #537, #45 ),
 ( #659, #229, #599, #595, #799, #414, #787, #728, #59, #175 ),
 ( #298, #222, #549, #604, #673, #239, #780, #490, #121, #351 ) ),
 .UNSPECIFIED., .F., .F., .F. ) 
 B_SPLINE_SURFACE_WITH_KNOTS ( ( 3, 3 ),
 ( 4, 3, 3, 4 ),
 ( 0.000000000000000000, 1.000000000000000000 ),
 ( -0.02320772741067923806, -0.01998705440403862610, -0.01898373892967346321, -0.001778422697533463270 ),
 .UNSPECIFIED. ) 
 GEOMETRIC_REPRESENTATION_ITEM ( )  RATIONAL_B_SPLINE_SURFACE ( (
 ( 1.000000000000000000, 1.000000000000000000, 1.000000000000000000, 1.000000000000000000, 1.000000000000000000, 1.000000000000000000, 1.000000000000000000, 1.000000000000000000, 1.000000000000000000, 1.000000000000000000),
 ( 0.7071067811865475727, 0.7071067811865475727, 0.7071067811865475727, 0.7071067811865475727, 0.7071067811865475727, 0.7071067811865475727, 0.7071067811865475727, 0.7071067811865475727, 0.7071067811865475727, 0.7071067811865475727),
 ( 1.000000000000000000, 1.000000000000000000, 1.000000000000000000, 1.000000000000000000, 1.000000000000000000, 1.000000000000000000, 1.000000000000000000, 1.000000000000000000, 1.000000000000000000, 1.000000000000000000) ) ) 
 REPRESENTATION_ITEM ( '' )  SURFACE ( )  );
#450 = CARTESIAN_POINT ( 'NONE',  ( 15.36943691467233464, 0.000000000000000000, -11.78635065959084649 ) ) ;
#451 = EDGE_LOOP ( 'NONE', ( #33, #142, #147, #680, #74 ) ) ;
#452 = FACE_OUTER_BOUND ( 'NONE', #329, .T. ) ;
#453 = DIRECTION ( 'NONE',  ( 0.000000000000000000, 0.000000000000000000, 1.000000000000000000 ) ) ;
#454 = VERTEX_POINT ( 'NONE', #492 ) ;
#455 = CARTESIAN_POINT ( 'NONE',  ( -19.00841278014440050, -25.00000000000000000, 1.258071373032450868 ) ) ;
#456 = EDGE_CURVE ( 'NONE', #18, #581, #376, .T. ) ;
#457 = CIRCLE ( 'NONE', #687, 19.05000000000000071 ) ;
#458 = CARTESIAN_POINT ( 'NONE',  ( 0.000000000000000000, 0.000000000000000000, -20.05000000000000071 ) ) ;
#459 = ORIENTED_EDGE ( 'NONE', *, *, #183, .F. ) ;
#460 = PRODUCT ( 'acrylic_tubing_shaped', 'acrylic_tubing_shaped', '', ( #377 ) ) ;
#461 = CARTESIAN_POINT ( 'NONE',  ( -12.62559319122745727, -2.032879073410318657E-17, -14.31003337144505849 ) ) ;
#462 = ADVANCED_FACE ( 'NONE', ( #734 ), #427, .T. ) ;
#463 = DIRECTION ( 'NONE',  ( -0.000000000000000000, 1.000000000000000000, -0.000000000000000000 ) ) ;
#464 = ORIENTED_EDGE ( 'NONE', *, *, #472, .T. ) ;
#465 = CARTESIAN_POINT ( 'NONE',  ( -17.23368564484652410, -1.233591701005354535, -8.135653194604861582 ) ) ;
#466 = CARTESIAN_POINT ( 'NONE',  ( 2.455416832290443586E-15, 60.00000000000000000, 20.05000000000000071 ) ) ;
#467 = CARTESIAN_POINT ( 'NONE',  ( -19.99053975727107257, -28.01384598829438133, 1.579339991499586038 ) ) ;
#468 = CARTESIAN_POINT ( 'NONE',  ( -18.86324565540843423, -4.797342355510615164, -2.756072976979450750 ) ) ;
#469 = CARTESIAN_POINT ( 'NONE',  ( 19.08298362309214724, -28.76172262780874078, 6.153922828245034893 ) ) ;
#470 = AXIS2_PLACEMENT_3D ( 'NONE', #509, #637, #85 ) ;
#471 = CARTESIAN_POINT ( 'NONE',  ( -14.38283576780732176, -43.83381775494203225, 13.97380800781899524 ) ) ;
#472 = EDGE_CURVE ( 'NONE', #12, #565, #248, .T. ) ;
#473 = CARTESIAN_POINT ( 'NONE',  ( 14.42447559413689895, -40.94974895439479923, 12.45696755377268872 ) ) ;
#474 = CARTESIAN_POINT ( 'NONE',  ( 24.35486732050316050, 0.000000000000000000, -8.258989421123057895 ) ) ;
#475 = CARTESIAN_POINT ( 'NONE',  ( -19.03561956232174168, -2.003745555975048998, -6.316190949286916378 ) ) ;
#476 = CARTESIAN_POINT ( 'NONE',  ( 9.845033186251082924, -43.81342226726751932, 16.32417563417067186 ) ) ;
#477 = EDGE_CURVE ( 'NONE', #638, #83, #592, .T. ) ;
#478 = CARTESIAN_POINT ( 'NONE',  ( 14.78984724723141042, -41.56550787844432904, 13.54113428658392593 ) ) ;
#479 = CARTESIAN_POINT ( 'NONE',  ( -20.04918584448997265, -7.603201172632457983, -0.5103618291093532378 ) ) ;
#480 = CARTESIAN_POINT ( 'NONE',  ( 15.15833975715482573, -40.04431210536462515, 11.55276038911289582 ) ) ;
#481 = ADVANCED_FACE ( 'NONE', ( #153 ), #156, .F. ) ;
#482 = DIRECTION ( 'NONE',  ( 0.000000000000000000, 1.000000000000000000, 0.000000000000000000 ) ) ;
#483 = CARTESIAN_POINT ( 'NONE',  ( 18.96167383275831853, -5.216404560967357718, 1.842375318992906408 ) ) ;
#484 = VECTOR ( 'NONE', #522, 1000.000000000000000 ) ;
#485 = ORIENTED_EDGE ( 'NONE', *, *, #759, .F. ) ;
#486 = CARTESIAN_POINT ( 'NONE',  ( 13.11253545267270582, -42.14230822592334391, 13.83399428461844849 ) ) ;
#487 = CARTESIAN_POINT ( 'NONE',  ( 0.000000000000000000, -45.00000000000000000, 0.000000000000000000 ) ) ;
#488 = DIRECTION ( 'NONE',  ( -0.000000000000000000, -1.000000000000000000, -0.000000000000000000 ) ) ;
#489 = CARTESIAN_POINT ( 'NONE',  ( -11.21047418541549767, -14.99999999999999822, 0.08336700161451900126 ) ) ;
#490 = CARTESIAN_POINT ( 'NONE',  ( 5.604183737251119624, -45.00000000000001421, 21.98043609687581323 ) ) ;
#491 = B_SPLINE_CURVE_WITH_KNOTS ( 'NONE', 3,
 ( #66, #13, #367, #677, #374, #127, #566, #552, #626, #304, #684, #613, #622, #311, #252, #307, #196, #618, #185, #442, #439, #70, #499, #557, #747, #688, #254, #3 ),
 .UNSPECIFIED., .F., .F.,
 ( 4, 2, 2, 2, 2, 2, 2, 2, 2, 2, 2, 2, 2, 4 ),
 ( 8.845388854693243284E-18, 0.003277175643254014083, 0.004915763464881013969, 0.006554351286508014289, 0.009831526929762015796, 0.01147011475138901872, 0.01310870257301601990, 0.01474729039464302283, 0.01638587821627002228, 0.01802446603789702520, 0.01966305385952402465, 0.02294022950277803050, 0.02457881732440502648, 0.02621740514603202593 ),
 .UNSPECIFIED. ) ;
#492 = CARTESIAN_POINT ( 'NONE',  ( 2.332952152375708043E-15, 60.00000000000000000, 19.05000000000000071 ) ) ;
#493 = CARTESIAN_POINT ( 'NONE',  ( -15.15999854348918241, -0.03808024277738188829, -13.16669807710221107 ) ) ;
#494 = CARTESIAN_POINT ( 'NONE',  ( -19.33911990501620437, -14.99999999999999822, 1.307890065565957105 ) ) ;
#495 = CARTESIAN_POINT ( 'NONE',  ( -2.135803175658686825, -45.00000000000000711, 18.94199179429356050 ) ) ;
#496 = CARTESIAN_POINT ( 'NONE',  ( -15.19036095212394066, -42.70864989401828637, 11.50158587511353758 ) ) ;
#497 = CARTESIAN_POINT ( 'NONE',  ( -22.96441478519908941, 0.000000000000000000, -13.31522978019213532 ) ) ;
#498 = ADVANCED_FACE ( 'NONE', ( #452 ), #650, .F. ) ;
#499 = CARTESIAN_POINT ( 'NONE',  ( 18.64409735036307580, -0.2502719468956910998, -7.456709775093949055 ) ) ;
#500 = CARTESIAN_POINT ( 'NONE',  ( -2.913472908603540024, -44.99911076994992243, 18.83002593672018676 ) ) ;
#501 = CARTESIAN_POINT ( 'NONE',  ( -19.33911990501620437, 0.000000000000000000, 1.307890065565957105 ) ) ;
#502 = CARTESIAN_POINT ( 'NONE',  ( 16.92988515434137398, -0.1661010125634443946, -8.751662487389189948 ) ) ;
#503 = CARTESIAN_POINT ( 'NONE',  ( -18.85035829652241901, -32.67238310006349877, 2.764445943623410784 ) ) ;
#504 = FACE_BOUND ( 'NONE', #93, .T. ) ;
#505 = CARTESIAN_POINT ( 'NONE',  ( 0.000000000000000000, 0.000000000000000000, 0.000000000000000000 ) ) ;
#506 = CARTESIAN_POINT ( 'NONE',  ( -20.00053415475983698, -44.99999999999999289, 1.407527450632974464 ) ) ;
#507 = EDGE_CURVE ( 'NONE', #166, #366, #323, .T. ) ;
#508 = CARTESIAN_POINT ( 'NONE',  ( -4.080121313148735496, -44.99107386802398167, 18.61213995337865157 ) ) ;
#509 = CARTESIAN_POINT ( 'NONE',  ( 0.000000000000000000, 0.000000000000000000, 0.000000000000000000 ) ) ;
#510 = ORIENTED_EDGE ( 'NONE', *, *, #730, .F. ) ;
#511 = CARTESIAN_POINT ( 'NONE',  ( -22.12853878841303157, -25.00000000000000000, 1.728096318312924318 ) ) ;
#512 = AXIS2_PLACEMENT_3D ( 'NONE', #686, #616, #305 ) ;
#513 = CARTESIAN_POINT ( 'NONE',  ( 18.25100110546652488, -15.00000000000000711, 5.459254404061024246 ) ) ;
#514 = ORIENTED_EDGE ( 'NONE', *, *, #194, .T. ) ;
#515 = UNCERTAINTY_MEASURE_WITH_UNIT (LENGTH_MEASURE( 1.000000000000000082E-05 ), #32, 'distance_accuracy_value', 'NONE');
#516 = CARTESIAN_POINT ( 'NONE',  ( -16.48111058010035990, -0.7387204181363883349, -9.569543234668000053 ) ) ;
#517 = CARTESIAN_POINT ( 'NONE',  ( -19.00841278014438629, -15.00000000000000711, 1.258071373032447537 ) ) ;
#518 = VERTEX_POINT ( 'NONE', #160 ) ;
#519 = CARTESIAN_POINT ( 'NONE',  ( -19.04549356048863373, -7.993119184037382752, -0.4812490301739701937 ) ) ;
#520 = DIRECTION ( 'NONE',  ( 0.000000000000000000, 0.000000000000000000, -1.000000000000000000 ) ) ;
#521 = ORIENTED_EDGE ( 'NONE', *, *, #507, .F. ) ;
#522 = DIRECTION ( 'NONE',  ( -0.000000000000000000, 1.000000000000000000, -0.000000000000000000 ) ) ;
#523 = ORIENTED_EDGE ( 'NONE', *, *, #183, .T. ) ;
#524 = CARTESIAN_POINT ( 'NONE',  ( -18.29555684351459988, -2.713074988208782123, -5.313203302442916609 ) ) ;
#525 = FACE_OUTER_BOUND ( 'NONE', #556, .T. ) ;
#526 = CARTESIAN_POINT ( 'NONE',  ( -19.94228246731881171, -30.21025727204272826, 2.082364915814572726 ) ) ;
#527 = B_SPLINE_CURVE_WITH_KNOTS ( 'NONE', 3,
 ( #594, #162, #467, #526, #350, #217, #711, #341, #408, #98, #44, #40, #285, #289, #281, #718, #531, #778, #536, #790, #221, #471, #413, #714, #225, #785, #540, #373, #620, #6, #243, #73 ),
 .UNSPECIFIED., .F., .F.,
 ( 4, 2, 2, 2, 2, 2, 2, 2, 2, 2, 2, 2, 2, 2, 2, 4 ),
 ( 7.023086426956682172E-18, 0.004500067471687784273, 0.006750101207531666869, 0.009000134943375551200, 0.01125016867921943380, 0.01350020241506331466, 0.01800026988675108158, 0.01912528675467302722, 0.02025030362259496938, 0.02250033735843885371, 0.02475037109428273110, 0.02587538796220467327, 0.02700040483012661197, 0.02925043856597049283, 0.03150047230181437369, 0.03600053977350213541 ),
 .UNSPECIFIED. ) ;
#528 = CARTESIAN_POINT ( 'NONE',  ( -19.03745783276250236, -7.506675253459889063, -0.7539497252129223615 ) ) ;
#529 = EDGE_CURVE ( 'NONE', #306, #772, #406, .T. ) ;
#530 = CARTESIAN_POINT ( 'NONE',  ( 18.90855870395699867, -30.94739968916788442, 6.673262555233900883 ) ) ;
#531 = CARTESIAN_POINT ( 'NONE',  ( -17.29866546529468962, -41.73328101982173877, 10.14232302605384284 ) ) ;
#532 = CARTESIAN_POINT ( 'NONE',  ( 17.35192892871194559, -34.95256373580633635, 7.887927099815481569 ) ) ;
#533 = CIRCLE ( 'NONE', #4, 20.05000000000000071 ) ;
#534 = CARTESIAN_POINT ( 'NONE',  ( 25.35284072225410767, 0.000000000000000000, -7.867220464560466198 ) ) ;
#535 = CARTESIAN_POINT ( 'NONE',  ( -2.135803175658686825, -45.00000000000000711, 18.94199179429356050 ) ) ;
#536 = CARTESIAN_POINT ( 'NONE',  ( -16.40874455135645960, -42.64324358206395260, 11.54252640225602633 ) ) ;
#537 = CARTESIAN_POINT ( 'NONE',  ( 7.574022315169349540, -25.00000000000000711, 1.267851273900712172 ) ) ;
#538 = CARTESIAN_POINT ( 'NONE',  ( 16.39168197937134508, 0.000000000000000000, -11.38505350914000402 ) ) ;
#539 = CARTESIAN_POINT ( 'NONE',  ( -19.94102857249393068, -5.384070084073719009, -2.115478355222754736 ) ) ;
#540 = CARTESIAN_POINT ( 'NONE',  ( -11.88502733796319255, -44.56126508569519729, 16.16509011323707767 ) ) ;
#541 = CARTESIAN_POINT ( 'NONE',  ( 0.000000000000000000, -45.00000000000000000, 0.000000000000000000 ) ) ;
#542 = DIRECTION ( 'NONE',  ( -0.000000000000000000, -1.000000000000000000, -0.000000000000000000 ) ) ;
#543 = CARTESIAN_POINT ( 'NONE',  ( 18.88076901413516495, -6.076691759911157398, 2.558619728438275676 ) ) ;
#544 = CARTESIAN_POINT ( 'NONE',  ( 17.81941457960577324, -32.26245936333680220, 6.740270162415382238 ) ) ;
#545 = DIRECTION ( 'NONE',  ( -0.000000000000000000, -1.000000000000000000, -0.000000000000000000 ) ) ;
#546 = CARTESIAN_POINT ( 'NONE',  ( -20.00053415475982987, -14.44557118392128459, 1.407527450632973576 ) ) ;
#547 = AXIS2_PLACEMENT_3D ( 'NONE', #541, #733, #294 ) ;
#548 = CARTESIAN_POINT ( 'NONE',  ( -13.60834339875070498, 0.000000000000000000, -14.72465585138336230 ) ) ;
#549 = CARTESIAN_POINT ( 'NONE',  ( 12.87591837486252366, -45.00000000000000711, 24.83506116642053385 ) ) ;
#550 = CARTESIAN_POINT ( 'NONE',  ( 20.55825802658667456, -14.99999999999999822, 6.365001626304768401 ) ) ;
#551 = CARTESIAN_POINT ( 'NONE',  ( 18.32323377549361254, -12.18692372908667032, 5.213218671643383928 ) ) ;
#552 = CARTESIAN_POINT ( 'NONE',  ( 19.65576194751282202, -7.636275844136431346, 3.984185008626883295 ) ) ;
#553 = EDGE_CURVE ( 'NONE', #251, #326, #669, .T. ) ;
#554 =( NAMED_UNIT ( * ) PLANE_ANGLE_UNIT ( ) SI_UNIT ( $, .RADIAN. ) );
#555 = CARTESIAN_POINT ( 'NONE',  ( -21.24284573895666028, 0.000000000000000000, -13.57457199733729070 ) ) ;
#556 = EDGE_LOOP ( 'NONE', ( #204, #152, #438, #663 ) ) ;
#557 = CARTESIAN_POINT ( 'NONE',  ( 17.95081353574895644, -0.09158261637412286327, -8.948261846567124422 ) ) ;
#558 = CARTESIAN_POINT ( 'NONE',  ( -14.50501995276860256, -43.17393621433813422, 12.35496366779173805 ) ) ;
#559 = FACE_OUTER_BOUND ( 'NONE', #708, .T. ) ;
#560 = CIRCLE ( 'NONE', #272, 20.05000000000000071 ) ;
#561 = VERTEX_POINT ( 'NONE', #148 ) ;
#562 = CARTESIAN_POINT ( 'NONE',  ( 15.49441761617121216, -0.000000000000000000, -11.14015840846900041 ) ) ;
#563 = CARTESIAN_POINT ( 'NONE',  ( 18.25100110546652488, -25.00000000000001421, 5.459254404061024246 ) ) ;
#564 = CARTESIAN_POINT ( 'NONE',  ( -7.311504888051049811, 0.000000000000000000, -0.5039851840944459260 ) ) ;
#565 = VERTEX_POINT ( 'NONE', #390 ) ;
#566 = CARTESIAN_POINT ( 'NONE',  ( 19.49982422670033344, -9.118284346968062337, 4.670589588891050248 ) ) ;
#567 = CARTESIAN_POINT ( 'NONE',  ( 10.91043599957123078, 0.000000000000000000, 2.577608934281200970 ) ) ;
#568 = DIRECTION ( 'NONE',  ( 0.000000000000000000, 0.000000000000000000, 1.000000000000000000 ) ) ;
#569 = CARTESIAN_POINT ( 'NONE',  ( -19.66982702988801890, -14.99999999999999822, 1.357708758099465340 ) ) ;
#570 = CARTESIAN_POINT ( 'NONE',  ( 19.87159474245398982, -14.99999999999999822, 6.095441978860739241 ) ) ;
#571 = CARTESIAN_POINT ( 'NONE',  ( -1.782134701234575402, -44.99994334487052328, 18.96977080589322284 ) ) ;
#572 = ORIENTED_EDGE ( 'NONE', *, *, #371, .T. ) ;
#573 = AXIS2_PLACEMENT_3D ( 'NONE', #375, #482, #315 ) ;
#574 = CARTESIAN_POINT ( 'NONE',  ( 18.56231122308478376, -14.99999999999999822, 5.581463713179585007 ) ) ;
#575 = VECTOR ( 'NONE', #542, 1000.000000000000000 ) ;
#576 = CARTESIAN_POINT ( 'NONE',  ( -2.134905181835834664, -44.99999887644601415, 18.93402767486568550 ) ) ;
#577 = ORIENTED_EDGE ( 'NONE', *, *, #71, .F. ) ;
#578 = DIRECTION ( 'NONE',  ( 0.000000000000000000, 1.000000000000000000, 0.000000000000000000 ) ) ;
#579 = CYLINDRICAL_SURFACE ( 'NONE', #61, 20.05000000000000071 ) ;
#580 = ADVANCED_FACE ( 'NONE', ( #640 ), #449, .T. ) ;
#581 = VERTEX_POINT ( 'NONE', #54 ) ;
#582 = CARTESIAN_POINT ( 'NONE',  ( -17.44993900846280610, -1.431657730053225830, -7.659205462648197127 ) ) ;
#583 = FACE_OUTER_BOUND ( 'NONE', #397, .T. ) ;
#584 = ORIENTED_EDGE ( 'NONE', *, *, #346, .T. ) ;
#585 = CARTESIAN_POINT ( 'NONE',  ( 21.18356123753737208, -25.00000000000000711, 6.610473485634470237 ) ) ;
#586 = AXIS2_PLACEMENT_3D ( 'NONE', #505, #803, #188 ) ;
#587 = CARTESIAN_POINT ( 'NONE',  ( 11.46259233195787353, -43.62879091866243897, 16.45422815878437817 ) ) ;
#588 = ORIENTED_EDGE ( 'NONE', *, *, #553, .T. ) ;
#589 = CARTESIAN_POINT ( 'NONE',  ( 0.000000000000000000, -45.00000000000000000, 0.000000000000000000 ) ) ;
#590 = ADVANCED_FACE ( 'NONE', ( #422 ), #41, .T. ) ;
#591 = CARTESIAN_POINT ( 'NONE',  ( 18.62339047613568610, -33.07266309270725912, 7.429217672922825422 ) ) ;
#592 = LINE ( 'NONE', #330, #220 ) ;
#593 = CARTESIAN_POINT ( 'NONE',  ( -20.00053415475983343, -25.00000000000000711, 1.407527450632973354 ) ) ;
#594 = CARTESIAN_POINT ( 'NONE',  ( -20.00053415475983343, -25.00000000000000711, 1.407527450632973354 ) ) ;
#595 = CARTESIAN_POINT ( 'NONE',  ( 19.18493145832131219, -45.00000000000000711, 5.825882331416709192 ) ) ;
#596 = AXIS2_PLACEMENT_3D ( 'NONE', #316, #81, #203 ) ;
#597 = CARTESIAN_POINT ( 'NONE',  ( 10.56356852329117757, -43.96047193276012877, 17.05679070439980904 ) ) ;
#598 = CARTESIAN_POINT ( 'NONE',  ( -20.05075965935279214, -9.605244117656861036, 0.4442513999746791620 ) ) ;
#599 = CARTESIAN_POINT ( 'NONE',  ( 20.18424634792933858, -45.00000000000000711, 6.218177908525589714 ) ) ;
#600 = CARTESIAN_POINT ( 'NONE',  ( 20.06196453231899213, 0.000000000000000000, -9.944230774250092608 ) ) ;
#601 = CARTESIAN_POINT ( 'NONE',  ( 19.18493145832130864, -15.00000000000000711, 5.825882331416710080 ) ) ;
#602 = EDGE_CURVE ( 'NONE', #306, #417, #699, .T. ) ;
#603 = ADVANCED_FACE ( 'NONE', ( #354 ), #608, .T. ) ;
#604 = CARTESIAN_POINT ( 'NONE',  ( 11.87660348525449194, -45.00000000000000711, 24.44276558931165155 ) ) ;
#605 = CARTESIAN_POINT ( 'NONE',  ( 14.58071855251887783, -15.00000000000000000, 4.018431669171111942 ) ) ;
#606 = CARTESIAN_POINT ( 'NONE',  ( 18.52084304569177675, -9.487638795597582941, 4.486339713961364772 ) ) ;
#607 = CARTESIAN_POINT ( 'NONE',  ( -19.66982702988801890, -14.99999999999999822, 1.357708758099465562 ) ) ;
#608 = PLANE ( 'NONE',  #781 ) ;
#609 = CARTESIAN_POINT ( 'NONE',  ( 18.87362134070304620, -14.99999999999999822, 5.703673022298146655 ) ) ;
#610 = CARTESIAN_POINT ( 'NONE',  ( 18.36791150587925969, -0.8544701754404208094, -5.168189996316035817 ) ) ;
#611 = CARTESIAN_POINT ( 'NONE',  ( -20.00053415475983343, -15.00000000000000711, 1.407527450632973354 ) ) ;
#612 = ORIENTED_EDGE ( 'NONE', *, *, #649, .F. ) ;
#613 = CARTESIAN_POINT ( 'NONE',  ( 20.01407860095378410, -4.223255246355801518, 1.260544575315232896 ) ) ;
#614 = EDGE_CURVE ( 'NONE', #746, #561, #491, .T. ) ;
#615 = CARTESIAN_POINT ( 'NONE',  ( 18.62343566479231782, -1.186179621202176016, -4.138719396499644709 ) ) ;
#616 = DIRECTION ( 'NONE',  ( 0.000000000000000000, 1.000000000000000000, 0.000000000000000000 ) ) ;
#617 = VERTEX_POINT ( 'NONE', #247 ) ;
#618 = CARTESIAN_POINT ( 'NONE',  ( 19.85099669729935812, -1.555710069108554139, -2.860945883989969296 ) ) ;
#619 = CARTESIAN_POINT ( 'NONE',  ( -7.447838245477711006, -44.88598865454360265, 17.55116285454772296 ) ) ;
#620 = CARTESIAN_POINT ( 'NONE',  ( -9.992064164436309071, -44.82259063303273905, 17.39921903457192442 ) ) ;
#621 = ORIENTED_EDGE ( 'NONE', *, *, #435, .T. ) ;
#622 = CARTESIAN_POINT ( 'NONE',  ( 20.03642154016265309, -3.861305995470165620, 0.8532561968538512343 ) ) ;
#623 = CARTESIAN_POINT ( 'NONE',  ( -16.00335917900707727, -42.00375959152902539, 10.35774990929600925 ) ) ;
#624 = CARTESIAN_POINT ( 'NONE',  ( -12.98365588641521917, 0.000000000000000000, -14.81876061286566859 ) ) ;
#625 = EDGE_CURVE ( 'NONE', #259, #518, #135, .T. ) ;
#626 = CARTESIAN_POINT ( 'NONE',  ( 19.76819653941911525, -6.707225487390270580, 3.419710596079086784 ) ) ;
#627 = CARTESIAN_POINT ( 'NONE',  ( -23.19254110523961288, -44.99999999999999289, 1.888380752152895692 ) ) ;
#628 = CARTESIAN_POINT ( 'NONE',  ( -17.25338551110162655, -40.21159190240805259, 8.082143180522317394 ) ) ;
#629 = DIRECTION ( 'NONE',  ( 0.000000000000000000, 0.000000000000000000, 1.000000000000000000 ) ) ;
#630 = DIRECTION ( 'NONE',  ( 0.3654163986533409680, 0.000000000000000000, -0.9308441628947471402 ) ) ;
#631 = CARTESIAN_POINT ( 'NONE',  ( -1.993804808526544736, -44.99999999999999289, -1.305059141451516469 ) ) ;
#632 = CARTESIAN_POINT ( 'NONE',  ( -14.74243246695860066, -43.02514057472400566, 12.07038642528017647 ) ) ;
#633 = CARTESIAN_POINT ( 'NONE',  ( 4.116321089216351904E-12, -44.98843942296809928, 19.05000000000000071 ) ) ;
#634 = VERTEX_POINT ( 'NONE', #244 ) ;
#635 = CARTESIAN_POINT ( 'NONE',  ( 19.18493145832130509, -14.99999999999999822, 5.825882331416708304 ) ) ;
#636 = CARTESIAN_POINT ( 'NONE',  ( -18.24726043978231971, -37.41996705216394048, 5.496158597589469785 ) ) ;
#637 = DIRECTION ( 'NONE',  ( 0.000000000000000000, 1.000000000000000000, 0.000000000000000000 ) ) ;
#638 = VERTEX_POINT ( 'NONE', #430 ) ;
#639 =( GEOMETRIC_REPRESENTATION_CONTEXT ( 3 ) GLOBAL_UNCERTAINTY_ASSIGNED_CONTEXT ( ( #515 ) ) GLOBAL_UNIT_ASSIGNED_CONTEXT ( ( #32, #763, #758 ) ) REPRESENTATION_CONTEXT ( 'NONE', 'WORKASPACE' ) );
#640 = FACE_OUTER_BOUND ( 'NONE', #155, .T. ) ;
#641 = CARTESIAN_POINT ( 'NONE',  ( 0.000000000000000000, 60.00000000000000000, 0.000000000000000000 ) ) ;
#642 = ORIENTED_EDGE ( 'NONE', *, *, #230, .T. ) ;
#643 = CARTESIAN_POINT ( 'NONE',  ( -17.83557637172366839, -1.883084951655441763, -6.712377761013149424 ) ) ;
#644 = CARTESIAN_POINT ( 'NONE',  ( 16.54553218637351009, 0.000000000000000000, -11.32465737537689954 ) ) ;
#645 = EDGE_LOOP ( 'NONE', ( #521, #584, #95, #37, #89, #337, #269, #577 ) ) ;
#646 = CARTESIAN_POINT ( 'NONE',  ( -18.42084399667300332, -3.024647569525396484, -4.861073543734995006 ) ) ;
#647 = CARTESIAN_POINT ( 'NONE',  ( 12.32810319256073939, -43.24691496545515434, 15.81606735576660405 ) ) ;
#648 = ORIENTED_EDGE ( 'NONE', *, *, #625, .F. ) ;
#649 = EDGE_CURVE ( 'NONE', #727, #12, #144, .T. ) ;
#650 = CYLINDRICAL_SURFACE ( 'NONE', #34, 19.05000000000000071 ) ;
#651 = CARTESIAN_POINT ( 'NONE',  ( 14.57180017774806835, -41.76320153424180148, 13.77573541995339745 ) ) ;
#652 = ORIENTED_EDGE ( 'NONE', *, *, #553, .F. ) ;
#653 = CARTESIAN_POINT ( 'NONE',  ( -19.04959806775734066, -9.514656823953746567, 0.2251716157911209659 ) ) ;
#654 = CARTESIAN_POINT ( 'NONE',  ( -19.33911990501621858, -25.00000000000000000, 1.307890065565959548 ) ) ;
#655 = CARTESIAN_POINT ( 'NONE',  ( 7.913767404165476194, -44.33114308525046710, 17.34368545713294196 ) ) ;
#656 = ADVANCED_FACE ( 'NONE', ( #130 ), #370, .F. ) ;
#657 = CARTESIAN_POINT ( 'NONE',  ( 18.56231122308478731, -14.99999999999999822, 5.581463713179585007 ) ) ;
#658 = CARTESIAN_POINT ( 'NONE',  ( -19.71686840274994168, -3.830846447656804266, -3.665040240287889439 ) ) ;
#659 = CARTESIAN_POINT ( 'NONE',  ( 22.18287612714539847, -45.00000000000000711, 7.002769062743350759 ) ) ;
#660 = AXIS2_PLACEMENT_3D ( 'NONE', #398, #578, #270 ) ;
#661 = CARTESIAN_POINT ( 'NONE',  ( 5.481145953208304888, -44.84945215623026371, 19.28991017006046249 ) ) ;
#662 = CARTESIAN_POINT ( 'NONE',  ( -20.00053415475983343, -15.00000000000000711, 1.407527450632973354 ) ) ;
#663 = ORIENTED_EDGE ( 'NONE', *, *, #168, .F. ) ;
#664 = CARTESIAN_POINT ( 'NONE',  ( 14.01765504848637178, -41.36992606519227422, 12.91601063820013096 ) ) ;
#665 = CARTESIAN_POINT ( 'NONE',  ( -19.14929484332998655, -45.00000000000000000, 21.50495414547257766 ) ) ;
#666 = DIRECTION ( 'NONE',  ( 0.000000000000000000, 1.000000000000000000, 0.000000000000000000 ) ) ;
#667 = ORIENTED_EDGE ( 'NONE', *, *, #602, .T. ) ;
#668 = CARTESIAN_POINT ( 'NONE',  ( 16.33405117513744997, -37.96631204849195029, 9.814228882577140212 ) ) ;
#669 = B_SPLINE_CURVE_WITH_KNOTS ( 'NONE', 3,
 ( #96, #394, #214, #768, #267, #653, #264, #519, #528, #697, #207, #468, #274, #218, #646, #524, #702, #99, #643, #582, #465, #342, #516, #90, #211, #762, #461, #706 ),
 .UNSPECIFIED., .F., .F.,
 ( 4, 2, 2, 2, 2, 2, 2, 2, 2, 2, 2, 2, 2, 4 ),
 ( 8.770652787438942800E-18, 0.003349035129230274691, 0.005023552693845404447, 0.006698070258460534637, 0.008372587823075658756, 0.01004710538769078634, 0.01339614051692103631, 0.01423339929922859924, 0.01507065808153616390, 0.01674517564615128976, 0.01841969321076641561, 0.02009421077538153799, 0.02344324590461178276, 0.02679228103384203100 ),
 .UNSPECIFIED. ) ;
#670 = CARTESIAN_POINT ( 'NONE',  ( 14.58071855251887960, 0.000000000000000000, 4.018431669171111054 ) ) ;
#671 = CARTESIAN_POINT ( 'NONE',  ( 19.02194641367486838, -2.680810896482790362, -1.141963059292279370 ) ) ;
#672 = CARTESIAN_POINT ( 'NONE',  ( -13.44490714422777167, 0.000000000000000000, -14.74927636875522019 ) ) ;
#673 = CARTESIAN_POINT ( 'NONE',  ( 11.56529336763622773, -45.00000000000000711, 24.32055628019309168 ) ) ;
#674 = CARTESIAN_POINT ( 'NONE',  ( 19.05399562153822401, -3.656158430534657278, 0.2188390183844245163 ) ) ;
#675 = CARTESIAN_POINT ( 'NONE',  ( -20.72998182638681541, -14.99999999999999822, 1.517413590177604688 ) ) ;
#676 = ORIENTED_EDGE ( 'NONE', *, *, #748, .T. ) ;
#677 = CARTESIAN_POINT ( 'NONE',  ( 19.31924974774753068, -11.20357425049212452, 5.365013670766738407 ) ) ;
#678 = CARTESIAN_POINT ( 'NONE',  ( -17.72859430683558557, -39.17008115439237770, 6.996097193544623671 ) ) ;
#679 = CARTESIAN_POINT ( 'NONE',  ( -22.18887716964076873, 0.000000000000000000, 1.737185869266866245 ) ) ;
#680 = ORIENTED_EDGE ( 'NONE', *, *, #420, .F. ) ;
#681 = CARTESIAN_POINT ( 'NONE',  ( 0.6590816590017364307, -45.00000000000000000, 20.03916443783941048 ) ) ;
#682 = CARTESIAN_POINT ( 'NONE',  ( -19.00841278014441826, -26.58932222223531028, 1.258071373032451978 ) ) ;
#683 = CARTESIAN_POINT ( 'NONE',  ( -19.66982702988802245, 0.000000000000000000, 1.357708758099465562 ) ) ;
#684 = CARTESIAN_POINT ( 'NONE',  ( 19.95051606283511703, -4.995118220903780326, 2.032049137710689291 ) ) ;
#685 = CARTESIAN_POINT ( 'NONE',  ( -16.02916883506135193, -45.00000000000000000, 21.03492920019210288 ) ) ;
#686 = CARTESIAN_POINT ( 'NONE',  ( 0.000000000000000000, 60.00000000000000000, 0.000000000000000000 ) ) ;
#687 = AXIS2_PLACEMENT_3D ( 'NONE', #445, #137, #382 ) ;
#688 = CARTESIAN_POINT ( 'NONE',  ( 17.15094900912981402, -0.009629205824988714552, -10.39960808994778851 ) ) ;
#689 = CARTESIAN_POINT ( 'NONE',  ( -10.35763284452207422, -45.00000000000000000, 20.18055236203078451 ) ) ;
#690 = CARTESIAN_POINT ( 'NONE',  ( -18.67410159549346460, -34.79716046936119511, 3.782662928733041774 ) ) ;
#691 = EDGE_LOOP ( 'NONE', ( #266, #523, #8, #572 ) ) ;
#692 = CARTESIAN_POINT ( 'NONE',  ( -21.06453647158644316, -25.00000000000000000, 1.567811884472950279 ) ) ;
#693 = CARTESIAN_POINT ( 'NONE',  ( -17.92198084837004401, -38.61007368265403272, 6.478647648835282880 ) ) ;
#694 = CARTESIAN_POINT ( 'NONE',  ( -0.3572757654691611218, -44.99288030960499185, 19.05000000000005045 ) ) ;
#695 = ORIENTED_EDGE ( 'NONE', *, *, #410, .F. ) ;
#696 = EDGE_CURVE ( 'NONE', #18, #772, #20, .T. ) ;
#697 = CARTESIAN_POINT ( 'NONE',  ( -19.00410184562687377, -6.565218052432642004, -1.355490303690865650 ) ) ;
#698 = SHAPE_DEFINITION_REPRESENTATION ( #386, #761 ) ;
#699 = B_SPLINE_CURVE_WITH_KNOTS ( 'NONE', 3,
 ( #179, #103, #106, #234, #282, #544, #286, #532, #226, #668, #116, #723, #480, #473, #664, #486, #715, #163, #51, #476, #719, #655, #345, #358, #167, #291, #791, #171, #418, #112 ),
 .UNSPECIFIED., .F., .F.,
 ( 4, 2, 2, 2, 2, 2, 2, 2, 2, 2, 2, 2, 2, 2, 4 ),
 ( 6.992893892674702526E-18, 0.004431777904022940300, 0.006647666856034401342, 0.008863555808045863252, 0.01329533371206878707, 0.01551122266408025939, 0.01772711161609172997, 0.01994300056810319882, 0.02215888952011466767, 0.02437477847212613999, 0.02659066742413760884, 0.02880655637614907769, 0.02991450085215480864, 0.03102244532816054307, 0.03545422323218346689 ),
 .UNSPECIFIED. ) ;
#700 = ORIENTED_EDGE ( 'NONE', *, *, #696, .T. ) ;
#701 = CLOSED_SHELL ( 'NONE', ( #656, #110, #42, #299, #275, #498, #481, #603, #590, #462, #580, #100, #384 ) ) ;
#702 = CARTESIAN_POINT ( 'NONE',  ( -18.22689899725957829, -2.562903223222917859, -5.544562242974429900 ) ) ;
#703 = CARTESIAN_POINT ( 'NONE',  ( -0.7161047176900325884, -44.99573734684714310, 19.03987393771008385 ) ) ;
#704 = APPLICATION_CONTEXT ( 'automotive_design' ) ;
#705 = ORIENTED_EDGE ( 'NONE', *, *, #529, .T. ) ;
#706 = CARTESIAN_POINT ( 'NONE',  ( -11.73428086174425466, 0.000000000000000000, -15.00697013583030071 ) ) ;
#707 = CARTESIAN_POINT ( 'NONE',  ( -19.00841278014438629, -25.00000000000000711, 1.258071373032447537 ) ) ;
#708 = EDGE_LOOP ( 'NONE', ( #510, #755, #652, #459 ) ) ;
#709 = CARTESIAN_POINT ( 'NONE',  ( -19.33911990501621503, -25.00000000000000000, 1.307890065565959326 ) ) ;
#710 = CARTESIAN_POINT ( 'NONE',  ( 3.665230984466218533, -44.97440001496494943, 19.76932237332598419 ) ) ;
#711 = CARTESIAN_POINT ( 'NONE',  ( -19.81447470765696295, -33.06585685557298859, 3.081683159004335870 ) ) ;
#712 = CARTESIAN_POINT ( 'NONE',  ( -7.665340799065838873, -25.00000000000000000, -0.4506823032901927650 ) ) ;
#713 = CARTESIAN_POINT ( 'NONE',  ( 13.89020169651180936, -42.32600484808905605, 14.47369282364834930 ) ) ;
#714 = CARTESIAN_POINT ( 'NONE',  ( -13.59178753630320813, -44.12557974995964827, 14.74454008842089259 ) ) ;
#715 = CARTESIAN_POINT ( 'NONE',  ( 12.62642487969579541, -42.48420196068058630, 14.28043857888220103 ) ) ;
#716 = CARTESIAN_POINT ( 'NONE',  ( 2.178614060139229203, -45.00000000000001421, 19.98918750696710234 ) ) ;
#717 = CARTESIAN_POINT ( 'NONE',  ( 18.99497868280083068, -4.803614365103761941, 1.459522591770239464 ) ) ;
#718 = CARTESIAN_POINT ( 'NONE',  ( -17.46036179547184375, -41.53137297550699003, 9.860900151972163741 ) ) ;
#719 = CARTESIAN_POINT ( 'NONE',  ( 9.212722721975277196, -44.00899968251473382, 16.69002336161327804 ) ) ;
#720 = CARTESIAN_POINT ( 'NONE',  ( 16.36301297016960277, -39.78682632643894834, 11.65028731745242929 ) ) ;
#721 = CARTESIAN_POINT ( 'NONE',  ( -20.01663020880588917, -12.24698120028551962, 1.162584389135827179 ) ) ;
#722 = ORIENTED_EDGE ( 'NONE', *, *, #410, .T. ) ;
#723 = CARTESIAN_POINT ( 'NONE',  ( 15.48584024177038643, -39.55863070217426269, 11.10703746613688736 ) ) ;
#724 = AXIS2_PLACEMENT_3D ( 'NONE', #487, #240, #62 ) ;
#725 = CARTESIAN_POINT ( 'NONE',  ( -16.35987595993317001, -45.00000000000000000, 21.08474789272561267 ) ) ;
#726 = CARTESIAN_POINT ( 'NONE',  ( -20.01082365668812812, -12.79191020240254595, 1.254276779924807128 ) ) ;
#727 = VERTEX_POINT ( 'NONE', #535 ) ;
#728 = CARTESIAN_POINT ( 'NONE',  ( 12.91251171031793454, -45.00000000000001421, 3.363552838980868209 ) ) ;
#729 = CARTESIAN_POINT ( 'NONE',  ( -2.135803175658686825, -45.00000000000000711, 18.94199179429356050 ) ) ;
#730 = EDGE_CURVE ( 'NONE', #518, #83, #159, .T. ) ;
#731 = CARTESIAN_POINT ( 'NONE',  ( 0.000000000000000000, 0.000000000000000000, 0.000000000000000000 ) ) ;
#732 = CARTESIAN_POINT ( 'NONE',  ( -22.23496711357211097, 0.000000000000000000, -13.42511591973676488 ) ) ;
#733 = DIRECTION ( 'NONE',  ( 0.000000000000000000, -1.000000000000000000, 0.000000000000000000 ) ) ;
#734 = FACE_OUTER_BOUND ( 'NONE', #451, .T. ) ;
#735 = CARTESIAN_POINT ( 'NONE',  ( -16.92576038084048307, -0.3970373392239196497, -10.75152298718983346 ) ) ;
#736 = CARTESIAN_POINT ( 'NONE',  ( -21.57355286382847837, 0.000000000000000000, -13.52475330480378268 ) ) ;
#737 = DIRECTION ( 'NONE',  ( -0.9308441628947471402, 0.000000000000000000, -0.3654163986533409680 ) ) ;
#738 = AXIS2_PLACEMENT_3D ( 'NONE', #641, #212, #453 ) ;
#739 =( LENGTH_UNIT ( ) NAMED_UNIT ( * ) SI_UNIT ( .MILLI., .METRE. ) );
#740 =( GEOMETRIC_REPRESENTATION_CONTEXT ( 3 ) GLOBAL_UNCERTAINTY_ASSIGNED_CONTEXT ( ( #24 ) ) GLOBAL_UNIT_ASSIGNED_CONTEXT ( ( #739, #554, #10 ) ) REPRESENTATION_CONTEXT ( 'NONE', 'WORKASPACE' ) );
#741 = SURFACE_SIDE_STYLE ('',( #182 ) ) ;
#742 = ORIENTED_EDGE ( 'NONE', *, *, #290, .F. ) ;
#743 = CARTESIAN_POINT ( 'NONE',  ( -1.204174897438542446, -45.00000000000000711, 19.30771600880883909 ) ) ;
#744 = CARTESIAN_POINT ( 'NONE',  ( -18.59253057590913372, -35.47521976274042288, 4.173092412031104814 ) ) ;
#745 = FACE_OUTER_BOUND ( 'NONE', #120, .T. ) ;
#746 = VERTEX_POINT ( 'NONE', #601 ) ;
#747 = CARTESIAN_POINT ( 'NONE',  ( 17.69690325913640194, -0.05530694651883137636, -9.440684052283803140 ) ) ;
#748 = EDGE_CURVE ( 'NONE', #581, #326, #349, .T. ) ;
#749 = CARTESIAN_POINT ( 'NONE',  ( 0.000000000000000000, 60.00000000000000000, -20.05000000000000071 ) ) ;
#750 = CARTESIAN_POINT ( 'NONE',  ( 17.62712278668264076, -0.3928514291794808488, -7.229361641124583571 ) ) ;
#751 = CARTESIAN_POINT ( 'NONE',  ( 10.91043599957123078, -15.00000000000000000, 2.577608934281201414 ) ) ;
#752 = PRODUCT_DEFINITION ( 'UNKNOWN', '', #47, #321 ) ;
#753 = CARTESIAN_POINT ( 'NONE',  ( -5.234395429537176625, -44.97396232776863911, 18.33385335339798061 ) ) ;
#754 = CARTESIAN_POINT ( 'NONE',  ( 18.25100110546652488, -25.00000000000001421, 5.459254404061024246 ) ) ;
#755 = ORIENTED_EDGE ( 'NONE', *, *, #92, .F. ) ;
#756 = CARTESIAN_POINT ( 'NONE',  ( -19.00841278014438629, -44.99999999999999289, 1.258071373032448870 ) ) ;
#757 = CARTESIAN_POINT ( 'NONE',  ( -16.83097100736908303, -40.93634669008473281, 8.928991799189439860 ) ) ;
#758 =( NAMED_UNIT ( * ) SI_UNIT ( $, .STERADIAN. ) SOLID_ANGLE_UNIT ( ) );
#759 = EDGE_CURVE ( 'NONE', #213, #581, #797, .T. ) ;
#760 = ORIENTED_EDGE ( 'NONE', *, *, #395, .T. ) ;
#761 = ADVANCED_BREP_SHAPE_REPRESENTATION ( 'acrylic_tubing_shaped', ( #107, #782 ), #740 ) ;
#762 = CARTESIAN_POINT ( 'NONE',  ( -13.44785380403161668, -0.03013716597288565446, -13.53992024310908882 ) ) ;
#763 =( NAMED_UNIT ( * ) PLANE_ANGLE_UNIT ( ) SI_UNIT ( $, .RADIAN. ) );
#764 = ORIENTED_EDGE ( 'NONE', *, *, #795, .T. ) ;
#765 = DIRECTION ( 'NONE',  ( 0.1489621972541516903, 0.000000000000000000, 0.9888428913579827562 ) ) ;
#766 = PLANE ( 'NONE',  #470 ) ;
#767 = ORIENTED_EDGE ( 'NONE', *, *, #748, .F. ) ;
#768 = CARTESIAN_POINT ( 'NONE',  ( -19.03534858828835041, -11.12218788196552133, 0.7573600961697417588 ) ) ;
#769 = EDGE_CURVE ( 'NONE', #561, #259, #533, .T. ) ;
#770 = B_SPLINE_CURVE_WITH_KNOTS ( 'NONE', 3,
 ( #195, #125, #624, #548 ),
 .UNSPECIFIED., .F., .F.,
 ( 4, 4 ),
 ( -0.01998705440403865732, -0.01809184683023206536 ),
 .UNSPECIFIED. ) ;
#771 = CARTESIAN_POINT ( 'NONE',  ( -19.00841278014438629, -15.00000000000000711, 1.258071373032447537 ) ) ;
#772 = VERTEX_POINT ( 'NONE', #513 ) ;
#773 = DIRECTION ( 'NONE',  ( -0.000000000000000000, -1.000000000000000000, -0.000000000000000000 ) ) ;
#774 = APPLICATION_PROTOCOL_DEFINITION ( 'draft international standard', 'automotive_design', 1998, #15 ) ;
#775 = CARTESIAN_POINT ( 'NONE',  ( 26.72616729051947360, 0.000000000000000000, -7.328101169672405213 ) ) ;
#776 = CARTESIAN_POINT ( 'NONE',  ( -0.2364774881409794083, -45.00000000000000000, -1.569788090030888261 ) ) ;
#777 = CARTESIAN_POINT ( 'NONE',  ( 6.559838915454346164, -44.74869755835162977, 18.95028729759398090 ) ) ;
#778 = CARTESIAN_POINT ( 'NONE',  ( -16.78603637780311431, -42.30588988255832561, 10.98470098378074944 ) ) ;
#779 = B_SPLINE_CURVE_WITH_KNOTS ( 'NONE', 3,
 ( #633, #694, #703, #146, #571, #325 ),
 .UNSPECIFIED., .F., .F.,
 ( 4, 2, 4 ),
 ( 0.03545422323218346689, 0.03651238377611208674, 0.03757054432004070660 ),
 .UNSPECIFIED. ) ;
#780 = CARTESIAN_POINT ( 'NONE',  ( 10.94267313239970640, -45.00000000000000711, 24.07613766195596838 ) ) ;
#781 = AXIS2_PLACEMENT_3D ( 'NONE', #379, #630, #737 ) ;
#782 = AXIS2_PLACEMENT_3D ( 'NONE', #318, #568, #16 ) ;
#783 = CARTESIAN_POINT ( 'NONE',  ( 24.66617743812142294, 0.000000000000000000, -8.136780112004496246 ) ) ;
#784 = CARTESIAN_POINT ( 'NONE',  ( 18.93901132233330031, -2.118362388301974431, -2.110065194736331584 ) ) ;
#785 = CARTESIAN_POINT ( 'NONE',  ( -12.47578405851333549, -44.44052902830286200, 15.71317419670738680 ) ) ;
#786 = EDGE_CURVE ( 'NONE', #634, #138, #58, .T. ) ;
#787 = CARTESIAN_POINT ( 'NONE',  ( 18.25100110546652488, -45.00000000000000711, 5.459254404061024246 ) ) ;
#788 = CARTESIAN_POINT ( 'NONE',  ( 18.25100110546652488, -15.00000000000000711, 5.459254404061024246 ) ) ;
#789 = CARTESIAN_POINT ( 'NONE',  ( -19.89925742607549708, -4.969425424426428428, -2.485024376003313940 ) ) ;
#790 = CARTESIAN_POINT ( 'NONE',  ( -15.57804780109686682, -43.23939514327001632, 12.64125152843613087 ) ) ;
#791 = CARTESIAN_POINT ( 'NONE',  ( 4.781657818456936937, -44.77618890409890184, 18.44388754137795416 ) ) ;
#792 = CARTESIAN_POINT ( 'NONE',  ( 11.75686540594838370, -43.50806083333667829, 16.24519100395518123 ) ) ;
#793 = CARTESIAN_POINT ( 'NONE',  ( 18.25100110546652488, -15.00000000000000711, 5.459254404061024246 ) ) ;
#794 = CARTESIAN_POINT ( 'NONE',  ( 18.87362134070304620, -25.00000000000000711, 5.703673022298147544 ) ) ;
#795 = EDGE_CURVE ( 'NONE', #65, #306, #123, .T. ) ;
#796 = CARTESIAN_POINT ( 'NONE',  ( -21.06453647158642895, -44.99999999999999289, 1.567811884472948059 ) ) ;
#797 = LINE ( 'NONE', #237, #235 ) ;
#798 = CARTESIAN_POINT ( 'NONE',  ( -21.45942949801379029, -14.99999999999999822, 1.627299729722235355 ) ) ;
#799 = CARTESIAN_POINT ( 'NONE',  ( 18.87362134070304620, -45.00000000000000711, 5.703673022298148432 ) ) ;
#800 = DIRECTION ( 'NONE',  ( -0.000000000000000000, 1.000000000000000000, -0.000000000000000000 ) ) ;
#801 = CARTESIAN_POINT ( 'NONE',  ( 19.00937278030369626, -4.601514205514023459, 1.260198385240612673 ) ) ;
#802 = FILL_AREA_STYLE ('',( #246 ) ) ;
#803 = DIRECTION ( 'NONE',  ( 0.000000000000000000, 1.000000000000000000, 0.000000000000000000 ) ) ;
ENDSEC;
END-ISO-10303-21;
